<?xml version="1.0" encoding="UTF-8"?>
<svg id="Layer_1" data-name="Layer 1" xmlns="http://www.w3.org/2000/svg" viewBox="0 0 94 94">
  <defs>
    <style>
      .cls-1 {
        stroke-width: 0px;
      }
    </style>
  </defs>
  <path id="bangalore" class="cls-1" d="m18.98,31.18c0-.74.6-1.33,1.33-1.33s1.33.6,1.33,1.33-.6,1.33-1.33,1.33-1.33-.6-1.33-1.33Zm54.7,1.33c.74,0,1.33-.6,1.33-1.33s-.6-1.33-1.33-1.33-1.33.6-1.33,1.33.6,1.33,1.33,1.33Zm-53.37,29.35c-.74,0-1.33.6-1.33,1.33s.6,1.33,1.33,1.33,1.33-.6,1.33-1.33-.6-1.33-1.33-1.33Zm52.03,1.33c0,.74.6,1.33,1.33,1.33s1.33-.6,1.33-1.33-.6-1.33-1.33-1.33-1.33.6-1.33,1.33Zm-25.35-10.67c-.74,0-1.33.6-1.33,1.33s.6,1.33,1.33,1.33,1.33-.6,1.33-1.33-.6-1.33-1.33-1.33Zm0-41.36c.74,0,1.33-.6,1.33-1.33s-.6-1.33-1.33-1.33-1.33.6-1.33,1.33.6,1.33,1.33,1.33Zm-21.35,74.34h42.69v-1.92H25.65v1.92Zm59.59-32.61c-.15.36-.5.59-.89.59h-4.38v19.42h4.38v1.92h-15.05v3.41h9.71v1.92H14.98v-1.92h9.71v-3.42h-15.05v-1.92h4.38v-19.43h-4.38c-.39,0-.74-.23-.89-.6s-.07-.77.21-1.05l5.06-5.05v-4.94c0-3.47,2.83-6.3,6.3-6.3s6.3,2.83,6.3,6.3v4.38h4.38c.39,0,.74.23.89.59.15.36.07.77-.21,1.05l-3.7,3.7h7.39v-9.32l-5.06-5.06c-.27-.27-.36-.69-.21-1.05.15-.36.5-.59.89-.59h4.38v-4.38c0-5.14,3.37-9.46,8-11v-2.35c0-2,1.63-3.63,3.63-3.63s3.63,1.63,3.63,3.63v2.35c4.63,1.53,8,5.86,8,11v4.38h4.38c.39,0,.74.23.89.59.15.36.06.77-.21,1.05l-5.06,5.06v9.32h7.39l-3.7-3.7c-.27-.27-.36-.69-.21-1.05.15-.36.5-.59.89-.59h4.38v-4.38c0-3.47,2.83-6.3,6.3-6.3s6.3,2.83,6.3,6.3v4.94l5.06,5.05c.27.28.36.69.21,1.05Zm-15.94-6.67h8.75v-4.38c0-2.41-1.96-4.38-4.38-4.38s-4.38,1.96-4.38,4.38v4.38h0Zm-42.69,12.59v14.09h3.42v-14.09h-3.42Zm5.34,14.09h3.42v-14.09h-3.42v14.09Zm5.34-14.09v14.09h3.42v-14.09h-3.42Zm5.34-1.92h8.75v-3.98l-4.38-4.38-4.38,4.38v3.98Zm0,1.92v14.09h8.75v-14.09h-8.75Zm10.67,14.09h3.41v-14.09h-3.41v14.09Zm-21.35,1.92v3.41h3.42v-3.41h-3.42Zm5.34,3.42h3.42v-3.42h-3.42v3.42Zm5.34,0h8.75v-3.42h-8.75v3.42Zm10.67,0h3.41v-3.42h-3.41v3.42Zm5.34,0h3.41v-3.42h-3.41v3.42Zm3.42-5.34v-14.09h-3.42v14.09h3.42Zm1.92,0h3.41v-14.09h-3.41v14.09Zm7.39-16.01l-3.42-3.41h-14.65v3.41h18.06Zm-26.07-37.18c.56-.08,1.12-.17,1.71-.17s1.15.09,1.71.17v-1.88c0-.94-.77-1.71-1.71-1.71s-1.71.77-1.71,1.71v1.88Zm-8,11.46v4.38h6.08v-7.04c0-2,1.63-3.63,3.63-3.63s3.63,1.63,3.63,3.63v7.04h6.08v-4.38c0-5.36-4.36-9.71-9.71-9.71-5.35,0-9.71,4.36-9.71,9.71Zm11.42,4.38v-7.04c0-.94-.77-1.71-1.71-1.71s-1.71.77-1.71,1.71v7.04h3.42Zm-15.4,1.92l3.42,3.42h20.55l3.42-3.42h-27.38Zm3.98,14.09h3.98l5.06-5.05c.38-.38.98-.38,1.36,0l5.06,5.05h3.98v-8.75h-19.43s0,8.75,0,8.75Zm-11.24,1.92l-3.42,3.41h18.07v-3.41h-14.65Zm-10.11-11.63v4.38h8.75v-4.38c0-2.41-1.96-4.38-4.38-4.38s-4.38,1.96-4.38,4.38Zm-3.98,9.71h13.29l3.42-3.42h-13.29l-3.42,3.42Zm12.73,21.35v-14.09h-4.38c-.39,0-.74-.23-.89-.6s-.07-.77.21-1.05l3.7-3.7h-7.39v19.42h8.75s0,0,0,0Zm1.92,5.34h3.42v-3.42h-3.42v3.42Zm40.77-3.42h-3.42v3.41h3.41v-3.41h0Zm10.67-21.35h-7.39l3.7,3.7c.27.28.36.69.21,1.05s-.5.59-.89.59h-4.38v14.09h8.75v-19.42h0Zm3.98-1.92l-3.42-3.42h-13.29l3.42,3.42h13.29Z"/>
</svg>