<?xml version="1.0" encoding="UTF-8"?>
<svg id="Layer_1" data-name="Layer 1" xmlns="http://www.w3.org/2000/svg" viewBox="0 0 94 94">
  <defs>
    <style>
      .cls-1 {
        stroke: #000;
        stroke-miterlimit: 10;
        stroke-width: .21px;
      }
    </style>
  </defs>
  <path class="cls-1" d="m25.39,48.32h11.14v-.75c0-5.58,0-11.16,0-16.74,0-.49.08-.94.25-1.4,1.78-4.68,3.54-9.37,5.31-14.06.32-.85.39-.9,1.33-.9,2.22,0,4.43,0,6.65,0,.82,0,.93.07,1.21.81,1.82,4.8,3.63,9.6,5.44,14.41.12.32.16.69.16,1.04,0,5.6,0,11.2,0,16.81v.77h11.7c.07-.16.15-.34.22-.53,1.04-2.77,2.09-5.55,3.13-8.32.31-.82.41-.89,1.28-.89,1.38,0,2.76,0,4.14,0,.67,0,.84.12,1.07.73,1.17,3.08,2.34,6.17,3.49,9.25.09.25.14.53.14.79,0,11.29,0,22.57,0,33.86,0,.82-.22,1.05-1.03,1.07-.15,0-.29,0-.44,0-22.41,0-44.81,0-67.22,0-.27,0-.55,0-.81-.03-.4-.06-.58-.27-.62-.67-.02-.17-.01-.33-.01-.5,0-11.2,0-22.41,0-33.61,0-.39.08-.79.21-1.15,1.1-2.95,2.22-5.9,3.33-8.85.31-.83.41-.89,1.28-.89,1.34,0,2.68,0,4.01,0,.86,0,.96.07,1.27.9,1.03,2.73,2.06,5.47,3.09,8.2.08.21.17.42.26.65Zm21.39-23.76s-.09,0-.14,0c-.03.09-.06.19-.08.28-.62,2.68-1.24,5.37-1.86,8.05-.29,1.28-.29,1.28-1.61,1.28-.43,0-.86.02-1.33.03,0,.29,0,.5,0,.7,0,.79,0,1.59,0,2.38,0,1.07-.18,1.25-1.22,1.25-.46,0-.92,0-1.38,0h-1.12v44.22h3.1c0-.28,0-.53,0-.77,0-3.51,0-7.02,0-10.54,0-.44-.01-.89.07-1.31.43-2.14,1.67-3.64,3.74-4.33,2.07-.69,3.97-.24,5.58,1.24,1.24,1.14,1.76,2.61,1.76,4.27,0,3.55,0,7.11,0,10.66,0,.24,0,.49,0,.72.72.14,2.59.12,3.05-.02v-44.15c-.94,0-1.84,0-2.73,0-.73,0-.97-.24-.98-.98-.01-.92,0-1.84,0-2.76,0-.18-.03-.36-.05-.6-.63,0-1.21,0-1.79,0-.68,0-.83-.12-.99-.8-.42-1.79-.83-3.58-1.24-5.37-.27-1.15-.53-2.31-.8-3.46Zm21.54,33.01h-11.37c-.14.75-.11,24.76.03,25.19h1.98c0-.27,0-.49,0-.72,0-2.07-.03-4.14.02-6.21.06-2.43,2.48-4.08,4.79-3.31,1.49.49,2.48,1.82,2.5,3.4.02,2.05,0,4.1,0,6.14,0,.22.02.44.03.69h2.01v-25.2Zm-31.86,25.21c.13-1.03.08-24.74-.05-25.21h-10.74c-.13.88-.09,24.77.04,25.2h1.67c0-.26,0-.49,0-.71,0-2.05-.02-4.1,0-6.15.02-1.56,1.04-2.9,2.53-3.38,1.46-.48,3.04,0,4,1.2.59.74.81,1.59.81,2.51,0,1.94,0,3.89,0,5.83,0,.22.02.44.03.7h1.7Zm-12.38,0v-32.94c-.73,0-1.42-.04-2.1.01-.65.05-1.04-.21-1.34-.78-.58-1.11-1.22-2.19-1.88-3.36-.14.24-.25.41-.35.58-.54.96-1.1,1.92-1.62,2.9-.26.49-.6.69-1.16.66-.73-.04-1.46,0-2.17,0-.14.69-.11,32.46.02,32.94h1.6c0-.26,0-.49,0-.71,0-2.05-.01-4.1,0-6.14.01-1.53,1.02-2.87,2.46-3.37,1.45-.5,3.05-.05,4.02,1.13.62.74.85,1.61.85,2.56,0,1.94,0,3.89,0,5.83,0,.22,0,.44,0,.7h1.65Zm45.79-32.94v32.93c.58.07,1.1.06,1.67.01,0-.3,0-.53,0-.76,0-2.03-.01-4.05,0-6.08.01-1.56,1.02-2.91,2.51-3.4,1.48-.49,3.08,0,4.05,1.23.58.74.78,1.6.78,2.52,0,1.92,0,3.85,0,5.77,0,.23,0,.45,0,.71h1.66v-32.93c-.64,0-1.24,0-1.84,0-1.21,0-1.14.04-1.74-1.04-.49-.87-.98-1.75-1.47-2.62-.08-.14-.17-.26-.28-.44-.14.23-.25.41-.35.58-.53.95-1.08,1.88-1.59,2.84-.25.48-.59.71-1.15.68-.73-.04-1.46,0-2.24,0Zm-25.94-20.32c.06-.21.1-.37.14-.53.62-2.66,1.25-5.32,1.87-7.98.03-.14.07-.29.12-.42.12-.27.35-.42.64-.43.32,0,.56.16.69.45.07.15.1.32.13.48.43,1.91.87,3.83,1.3,5.74.2.89.41,1.78.62,2.67h5.61c-1.71-4.53-3.41-9.02-5.1-13.51h-6.52c-1.7,4.49-3.4,8.98-5.1,13.52h5.6Zm6.89,53.27c0-.29,0-.52,0-.74,0-2.36,0-4.72,0-7.08,0-1.27.02-2.55,0-3.82-.06-2.93-2.89-4.88-5.57-3.85-1.28.49-2.65,1.78-2.64,4.03.01,3.64,0,7.27,0,10.91,0,.18.03.36.05.57h8.17Zm6.09-32.92v6.11c.71.13,10.94.11,11.4-.02.12-.82.08-5.66-.05-6.1h-11.34Zm-20.46,6.15c.12-.74.09-5.7-.03-6.15h-10.77v6.15h10.79Zm-20.88-7.69c.77-1.37,1.52-2.69,2.27-4.02.09-.16.17-.33.28-.49.35-.49.89-.51,1.25-.03.1.13.17.29.25.43.7,1.23,1.39,2.47,2.1,3.7.09.16.26.39.41.4.52.05,1.06.02,1.66.02-1.06-2.83-2.09-5.56-3.11-8.27h-3.85c-1.03,2.74-2.08,5.47-3.09,8.26h1.83Zm61.56-8.26h-3.85c-1.03,2.74-2.08,5.47-3.09,8.26h1.8c.11-.18.22-.36.32-.54.68-1.2,1.36-2.4,2.03-3.6.08-.15.16-.3.26-.43.32-.42.84-.43,1.18-.03.11.13.18.28.26.43.71,1.25,1.41,2.51,2.13,3.76.09.16.26.39.41.4.52.05,1.05.02,1.66.02-1.06-2.82-2.07-5.53-3.11-8.27Zm.2,42.69c.03-.13.06-.18.06-.24,0-2.19.02-4.38,0-6.58,0-.65-.28-1.22-.8-1.63-.7-.55-1.47-.68-2.29-.3-.83.39-1.27,1.07-1.28,1.99-.01,2.13,0,4.26,0,6.39,0,.12.03.23.05.37h4.25Zm-56.41-.01c.02-.22.04-.4.04-.58,0-1.98,0-3.97,0-5.95,0-.25-.03-.5-.09-.74-.32-1.33-1.75-2.04-2.99-1.47-.86.39-1.3,1.09-1.3,2.04,0,2.09,0,4.18,0,6.26,0,.14.02.28.04.45h4.29Zm12.26.03c.04-.11.07-.15.07-.19,0-2.21.04-4.43,0-6.64-.03-1.26-1.07-2.18-2.26-2.13-1.2.05-2.1,1.01-2.11,2.28,0,2.07,0,4.14,0,6.21,0,.16.03.31.05.48h4.24Zm31.63,0v-.74c0-1.42,0-2.84,0-4.26,0-.63.02-1.26-.01-1.88-.05-1.08-.84-1.91-1.93-2.05-.97-.13-1.99.5-2.29,1.47-.1.31-.12.66-.12.99-.01,1.94,0,3.89,0,5.83,0,.2,0,.4,0,.65h4.36Zm-26.76-45.75h2.23c.01-.23.03-.44.03-.64,0-.92,0-1.84,0-2.76,0-.66.24-.89.91-.92.21,0,.42,0,.63,0,.45,0,.91,0,1.39,0,.13-.59.25-1.1.38-1.68-1.91,0-3.73,0-5.56,0v6Zm12.16-4.32c.65,0,1.27,0,1.89,0,.79,0,1.01.23,1.02,1,0,.81,0,1.63,0,2.44,0,.29,0,.57,0,.91h2.24v-6.01h-5.53c.05.24.08.44.13.63.08.32.16.64.25,1.02Z"/>
  <path class="cls-1" d="m53.22,44.91c0,3.61-2.94,6.54-6.54,6.53-3.58-.01-6.49-2.93-6.49-6.52,0-3.62,2.91-6.52,6.54-6.51,3.59,0,6.49,2.91,6.49,6.5Zm-6.51-5.03c-2.79,0-5.03,2.21-5.04,4.99-.01,2.81,2.23,5.08,5.02,5.09,2.76,0,5.03-2.25,5.04-5.01.01-2.82-2.21-5.06-5.02-5.07Z"/>
  <path class="cls-1" d="m18.76,69.89c-.88,0-1.76,0-2.63,0-.77,0-1.01-.24-1.02-1.01,0-1.78,0-3.55,0-5.33,0-.76.24-1.01,1.02-1.01,1.78,0,3.55,0,5.33,0,.73,0,.99.25.99.98.01,1.8.01,3.6,0,5.39,0,.73-.26.97-1,.97-.9,0-1.8,0-2.7,0Zm2.18-5.83c-1.05-.11-3.87-.07-4.31.05v4.25h4.31v-4.3Z"/>
  <path class="cls-1" d="m18.77,52.21c.92,0,1.84,0,2.76,0,.66,0,.91.24.92.91.01,1.84.01,3.68,0,5.51,0,.63-.26.88-.88.88-1.86.01-3.72,0-5.58,0-.63,0-.88-.25-.88-.87,0-1.86,0-3.72,0-5.58,0-.59.26-.84.84-.85.94-.01,1.88,0,2.82,0Zm-2.15,5.83c1.48,0,2.89.02,4.28,0,.14-.88.1-3.87-.04-4.3h-4.24v4.3Z"/>
  <path class="cls-1" d="m75.46,61.88c.9,0,1.8,0,2.7,0,.73,0,.98.24.99.98,0,1.8.01,3.6,0,5.39,0,.73-.26.97-1,.97-1.78,0-3.55,0-5.33,0-.77,0-1.01-.25-1.01-1.02,0-1.78,0-3.55,0-5.33,0-.76.24-.99,1.02-.99.88,0,1.76,0,2.63,0Zm-2.14,1.5v4.37c1.46-.02,2.89.05,4.3-.05.11-1.15.07-3.87-.06-4.32h-4.24Z"/>
  <path class="cls-1" d="m71.8,55.18c0-.9,0-1.8,0-2.69,0-.7.24-.96.93-.96,1.82-.01,3.63-.01,5.45,0,.7,0,.95.25.95.95.01,1.82.01,3.63,0,5.45,0,.69-.27.93-.97.93-1.8,0-3.59,0-5.39,0-.73,0-.97-.25-.98-.98,0-.9,0-1.8,0-2.69Zm5.83-2.14c-1.12-.12-3.87-.07-4.3.05v4.24h4.3v-4.29Z"/>
</svg>