<?xml version="1.0" encoding="UTF-8"?>
<svg id="Layer_1" data-name="Layer 1" xmlns="http://www.w3.org/2000/svg" viewBox="0 0 94 94">
  <defs>
    <style>
      .cls-1 {
        stroke-width: 0px;
      }
    </style>
  </defs>
  <g id="tKuo1U">
    <g>
      <path class="cls-1" d="m19.71,58.03h2.22v-18.66h-2.23v-1.95c1.1-.06,2.17-.13,3.34-.19v-6.59c1-.05,1.9-.09,2.91-.14v-5.16c.92-.05,1.72-.09,2.7-.13,0-.86.06-1.67-.02-2.47-.08-.88.28-1.28,1.08-1.59,3.31-1.28,6.75-2.07,10.25-2.52,8.39-1.08,16.58-.19,24.58,2.55,1.1.38,1.1.37,1.1,1.59,0,.78,0,1.57,0,2.44.79.04,1.47.08,2.29.13v5.22h2.53v6.65c1.34.07,2.55.14,3.81.21v1.89c-.61.04-1.22.08-1.89.13v18.54c.56.04,1.07.08,1.64.12v1.87c-.53.04-1.04.09-1.63.14v9.64c.52.05,1.04.1,1.62.16v1.87c-.51.04-1.02.08-1.67.13v13.18H22.04v-13.18c-.84-.04-1.55-.08-2.32-.12v-1.89c.71-.05,1.42-.09,2.21-.15v-9.65c-.75-.04-1.45-.07-2.22-.11v-1.96Zm19.56,2.06v9.66c.79.04,1.53.09,2.31.13v1.97h-2.28v11.19h15.4v-11.14c-.75-.04-1.43-.08-2.13-.12v-1.9c.74-.05,1.41-.09,2.12-.14v-9.65c-.76-.04-1.43-.08-2.12-.12v-1.89c.74-.04,1.42-.07,2.15-.11.02-.4.05-.72.05-1.04,0-1.85.01-3.7,0-5.54,0-.56-.03-1.13-.15-1.67-.86-4.05-4.45-6.6-8.63-6.16-3.76.39-6.72,3.72-6.77,7.67-.03,1.98,0,3.96,0,5.94,0,.25.05.51.08.81.79.04,1.53.07,2.28.11v1.9c-.77.03-1.48.07-2.3.1Zm-15.21.03v9.6c.45.07.86.14,1.29.21v1.82c-.46.07-.86.13-1.27.19v11.15h2.13v-30.69h9.82v5.64c.45-.03.76-.05,1.14-.08,0-.75,0-1.41,0-2.07.03-1.91-.06-3.84.12-5.73.48-4.94,4.72-8.69,9.67-8.7,5.05-.01,9.35,3.82,9.75,8.83.18,2.16.08,4.35.11,6.53,0,.38.04.76.06,1.22.43-.03.73-.04,1.18-.07v-5.56h9.79v30.69h2.36v-11.2c-.67-.04-1.24-.08-1.81-.12v-1.87c.66-.06,1.24-.12,1.83-.18v-9.61c-.64-.05-1.21-.1-1.82-.15v-1.89c.65-.03,1.2-.06,1.82-.09v-18.52H24.1v18.5c.47.05.85.1,1.26.14v1.85c-.43.05-.81.1-1.29.16Zm1.11-22.94h43.2v-4.49H25.18v4.49Zm3.08,17.25v28.61h5.63v-28.61h-5.63Zm37.5,28.71v-28.68h-5.64v28.61c.36.03.65.06.94.06,1.54,0,3.09,0,4.71,0ZM30.85,25.08h32.81c0-.48,0-.87,0-1.26,0-.26-.03-.52-.05-.82-.45-.16-.88-.32-1.32-.45-3.99-1.21-8.06-1.97-12.23-2.24-6.02-.39-11.92.26-17.68,2.05-1.86.58-1.85.61-1.61,2.57,0,.03.03.06.08.15Zm-2.81,5.39h37.85v-3.11H28.03v3.11Zm9.04,52.69v-11.3c-.37.02-.68.04-1.01.06v11.18c.34.02.63.04,1.01.06Zm20.88-.04v-11.2h-1.03v11.2h1.03Zm-21.9-23.01v9.64h1.03v-9.64h-1.03Zm21.91.02h-1.06v9.62h1.06v-9.62Z"/>
      <path class="cls-1" d="m34.37,46.09c.01,1.83-1.39,3.28-3.21,3.32-1.81.04-3.36-1.48-3.35-3.3.01-1.79,1.5-3.27,3.28-3.28,1.81,0,3.26,1.44,3.27,3.26Zm-3.22-1.2c-.71-.02-1.28.5-1.3,1.19-.02.69.52,1.26,1.22,1.28.71.02,1.27-.5,1.29-1.2.02-.71-.49-1.25-1.21-1.28Z"/>
      <path class="cls-1" d="m66.24,46.15c-.01,1.81-1.47,3.26-3.27,3.26-1.78,0-3.27-1.48-3.28-3.27-.01-1.83,1.53-3.35,3.34-3.31,1.81.04,3.23,1.5,3.22,3.32Zm-3.31,1.21c.7.01,1.27-.53,1.29-1.22.01-.69-.54-1.25-1.24-1.26-.7-.01-1.28.53-1.29,1.21,0,.69.54,1.25,1.24,1.26Z"/>
    </g>
  </g>
</svg>