<?xml version="1.0" encoding="UTF-8"?>
<svg id="Layer_1" data-name="Layer 1" xmlns="http://www.w3.org/2000/svg" viewBox="0 0 94 94">
  <defs>
    <style>
      .cls-1 {
        fill: #fff;
        font-family: Poppins-Regular, Poppins;
        font-size: 8px;
      }

      .cls-2 {
        stroke-width: 0px;
      }
    </style>
  </defs>
  <text class="cls-1" transform="translate(.62 -4.18)"><tspan x="0" y="0">Faridabad</tspan></text>
  <g>
    <path class="cls-2" d="m50.22,23.48h-5.67c.63-.99,1.07-1.91,1.72-2.65.69-.79,1.88-.64,2.54.25.51.69.89,1.49,1.41,2.4Z"/>
    <path class="cls-2" d="m76.92,39h-4.26c.5-.76.85-1.48,1.37-2.04.48-.52,1.32-.41,1.77.19.41.54.7,1.16,1.11,1.85Z"/>
    <path class="cls-2" d="m17.3,38.99c.43-.7.73-1.35,1.17-1.88.54-.66,1.45-.61,1.98.08.4.52.67,1.13,1.07,1.81h-4.21Z"/>
    <path class="cls-2" d="m47.32,16.61c.46,0,.93,0,1.39,0,.43,0,.79.19.71.64-.05.25-.41.61-.65.62-.99.07-1.99.07-2.98,0-.24-.02-.45-.41-.68-.63.23-.21.43-.55.7-.6.49-.1,1.01-.03,1.52-.03h0Z"/>
    <path class="cls-2" d="m47.91,13.4c0,.46,0,.92,0,1.39,0,.43-.2.79-.63.71-.25-.04-.61-.41-.62-.65-.07-.97-.04-1.94-.02-2.91,0-.42.23-.74.68-.71.44.03.61.35.6.78,0,.46,0,.92,0,1.39Z"/>
    <path class="cls-2" d="m19.31,33.87c.37,0,.75-.05,1.1.02.19.04.48.27.48.43,0,.17-.25.49-.41.5-.78.05-1.57.05-2.35,0-.16-.01-.42-.33-.42-.5,0-.15.29-.39.48-.43.36-.07.73-.02,1.1-.02Z"/>
    <path class="cls-2" d="m74.68,34.85c-.35,0-.71.06-1.03-.02-.22-.05-.38-.32-.57-.48.19-.16.37-.45.57-.46.71-.06,1.43-.06,2.14,0,.2.02.37.3.56.46-.19.17-.35.43-.57.48-.35.08-.73.02-1.1.02Z"/>
    <path class="cls-2" d="m19.8,31.49c0,.37.05.75-.02,1.1-.03.17-.29.45-.42.43-.19-.03-.5-.25-.51-.41-.05-.78-.05-1.57,0-2.35,0-.15.32-.43.44-.4.19.04.44.27.48.45.07.38.02.78.02,1.17Z"/>
    <path class="cls-2" d="m75.18,31.45c0,.39.04.79-.02,1.17-.03.17-.27.41-.43.41-.16,0-.46-.23-.47-.37-.05-.8-.05-1.61,0-2.41,0-.14.34-.41.45-.38.19.05.41.28.45.47.07.35.02.73.02,1.1h0Z"/>
    <path class="cls-2" d="m49.58,42.03c0,.67.01,1.34,0,2.01-.01.68-.33,1.05-1,1.08-.9.04-1.8.03-2.7,0-.62-.02-.98-.39-.99-1.03-.01-1.36-.05-2.73.01-4.09.06-1.39,1.12-2.3,2.48-2.24,1.25.06,2.18,1.06,2.2,2.4,0,.62,0,1.25,0,1.87Zm-1.86,1.15c0-1.04.03-2-.02-2.97-.01-.2-.29-.39-.45-.58-.15.14-.43.28-.44.43-.04,1.03-.02,2.06-.02,3.12h.93Z"/>
    <path class="cls-2" d="m47.24,47.68c-.56,0-1.11.01-1.67,0-.68-.02-1.06-.36-1.07-.93,0-.58.36-.92,1.05-.93,1.13-.01,2.27-.02,3.4,0,.62,0,1.01.38,1.01.91,0,.52-.4.92-.99.95-.58.02-1.16,0-1.74,0Z"/>
    <path class="cls-2" d="m47.26,51.87c-.76,0-1.23-.5-1.22-1.27,0-.7.6-1.29,1.27-1.27.65.02,1.28.67,1.26,1.32-.02.69-.6,1.23-1.32,1.22Z"/>
    <path class="cls-2" d="m17.54,49.74c0-.49-.02-.97,0-1.46.04-.96.82-1.71,1.76-1.71.94,0,1.73.74,1.76,1.7.03,1.02,0,2.03,0,3.05,0,.5-.25.79-.75.8-.67.02-1.34.01-2.01,0-.5-.01-.76-.29-.76-.79,0-.53,0-1.06,0-1.6Zm1.44.9c.06.04.11.09.17.13.16-.13.45-.26.47-.4.05-.64.04-1.29,0-1.93,0-.13-.21-.24-.32-.37-.11.12-.3.24-.31.37-.03.73-.01,1.46-.01,2.2Z"/>
    <path class="cls-2" d="m19.3,52.64c.46,0,.94-.08,1.38.03.26.06.62.4.63.63,0,.24-.33.69-.55.71-.96.08-1.94.08-2.9,0-.22-.02-.56-.46-.55-.7,0-.23.36-.57.62-.64.44-.11.92-.03,1.38-.03Z"/>
    <path class="cls-2" d="m19.37,55.84c.71,0,1.29.59,1.27,1.27-.02.65-.67,1.29-1.32,1.27-.68-.02-1.23-.62-1.23-1.32,0-.75.5-1.22,1.28-1.21Z"/>
    <path class="cls-2" d="m72.92,49.81c0-.49-.03-.97,0-1.46.07-1.02.83-1.78,1.78-1.78.93,0,1.7.68,1.76,1.7.07,1.01.04,2.03.02,3.05,0,.51-.29.81-.84.81-.62,0-1.25,0-1.87,0-.58,0-.84-.32-.86-.86-.01-.49,0-.97,0-1.46h0Zm1.44.83c.65.03.67.03.68-.43.02-.53.03-1.06-.01-1.59-.02-.19-.22-.37-.34-.56-.11.18-.3.35-.31.53-.04.66-.02,1.33-.02,2.05Z"/>
    <path class="cls-2" d="m74.69,54.06c-.44,0-.88.03-1.32,0-.45-.03-.81-.32-.7-.76.07-.26.46-.6.74-.63.87-.08,1.76-.08,2.63,0,.26.03.49.43.73.66-.23.24-.43.62-.71.7-.43.12-.92.03-1.38.03Z"/>
    <path class="cls-2" d="m74.69,58.27c-.77,0-1.24-.47-1.24-1.25,0-.71.57-1.3,1.25-1.29.64,0,1.29.66,1.29,1.3,0,.68-.59,1.24-1.3,1.24Z"/>
    <path class="cls-2" d="m32.56,65.36c0-.88.39-1.32,1.14-1.32.72,0,1.11.46,1.12,1.28,0,.85-.41,1.36-1.12,1.37-.72.01-1.13-.48-1.13-1.33Z"/>
    <path class="cls-2" d="m41.25,65.39c0,.82-.39,1.29-1.08,1.3-.7.02-1.15-.5-1.16-1.33,0-.86.4-1.32,1.15-1.32.75,0,1.09.44,1.09,1.35Z"/>
    <path class="cls-2" d="m45.49,65.36c0-.89.37-1.33,1.12-1.32.74,0,1.14.47,1.13,1.34,0,.8-.43,1.29-1.11,1.31-.72.02-1.14-.46-1.14-1.32Z"/>
    <path class="cls-2" d="m54.17,65.33c0,.87-.39,1.36-1.11,1.36-.71,0-1.14-.51-1.14-1.35,0-.85.42-1.31,1.17-1.3.72.01,1.08.44,1.08,1.3Z"/>
    <path class="cls-2" d="m58.42,65.37c0-.9.36-1.33,1.11-1.33.75,0,1.14.47,1.13,1.34,0,.8-.42,1.29-1.11,1.31-.72.02-1.14-.47-1.14-1.32Z"/>
    <path class="cls-2" d="m56.9,65.42c0,.37-.02.74,0,1.11.03.46-.18.61-.62.6-.41,0-.59-.15-.58-.57.01-.78.01-1.57,0-2.35,0-.42.18-.55.59-.56.45,0,.64.15.61.6-.02.39,0,.78,0,1.18Z"/>
    <path class="cls-2" d="m63.35,65.38c0,.37-.02.74,0,1.11.03.44-.12.63-.58.63-.47,0-.6-.2-.58-.64.02-.76.02-1.53,0-2.29-.01-.44.19-.55.59-.55.4,0,.61.12.58.56-.02.39,0,.79,0,1.18Z"/>
    <path class="cls-2" d="m50.42,65.4c0,.37-.02.74,0,1.1.03.43-.11.63-.58.63-.45,0-.61-.18-.59-.62.02-.78.02-1.57,0-2.35-.01-.47.26-.5.62-.51.37,0,.57.1.55.51-.02.41,0,.83,0,1.24Z"/>
    <path class="cls-2" d="m42.82,65.34c0-.37.01-.74,0-1.11-.02-.39.09-.6.53-.6.4,0,.66.07.65.56-.02.78-.02,1.57,0,2.35.01.49-.25.56-.65.57-.45,0-.55-.22-.53-.61.02-.39,0-.78,0-1.17Z"/>
    <path class="cls-2" d="m37.5,65.39c0,.37-.02.74,0,1.11.03.44-.13.63-.59.63-.47,0-.6-.21-.59-.64.02-.76.02-1.53,0-2.29-.01-.44.21-.54.6-.55.41,0,.6.13.57.56-.02.39,0,.79,0,1.18Z"/>
    <path class="cls-2" d="m88.43,72.19c.86-.28,1.87-.69,1.87-3.09,0-2.8-1.97-2.75-1.97-2.75,1.38,0,1.4-2.71-1.16-2.71-1.18,0-2.36-.02-3.55,0-.43,0-.61-.12-.66-.57-.84-7.57-2.67-14.93-4.87-22.21-.14-.47-.36-.61-.83-.6-1.64.03-3.29.03-4.94,0-.5-.01-.68.19-.81.63-1.86,6.14-3.41,12.36-4.42,18.7-.19,1.21-.33,2.43-.47,3.51-.34-.2-.69-.53-1.11-.65-1.02-.3-1.37-.92-1.22-1.95.07-.49.01-1.01.01-1.61h-5.9c-.17-1.49-.25-2.9-.49-4.28-.77-4.59-1.42-9.2-2.44-13.73-1.12-4.98-2.61-9.89-3.91-14.83-.14-.52-.35-.7-.9-.69-2.2.03-4.4.03-6.61,0-.48,0-.68.15-.82.61-2.52,8.24-4.6,16.59-5.92,25.12-.39,2.56-.65,5.14-.98,7.79h-4.13c-1.85,0-1.89,0-1.83,1.84.02.73-.23,1.13-.86,1.46-.67.35-1.28.82-1.9,1.24-.13-.9-.27-1.99-.43-3.07-.88-6.16-2.37-12.17-4.12-18.13-.19-.64-.26-1.5-.71-1.82-.45-.32-1.29-.12-1.96-.13-1.18-.01-2.36.01-3.55-.01-.42,0-.61.13-.74.54-2.19,7.26-4.02,14.59-4.87,22.14-.06.54-.24.76-.81.74-1.21-.04-2.42-.03-3.62,0-.42.14-1.4.65-1.06,2.47,0,0-2.07.61-2.08,2.79-.01,2.18.27,3.32,1.96,3.32v2.44h0v8.37h0v1.51c25.89.01,56.9.07,82.78.08v-1.57h-.01v-10.89Zm-19.62-14.53c.92-5.18,2.19-10.27,3.69-15.31.16-.54.38-.75.95-.72.97.05,1.95-.01,2.92.03.23.01.58.23.64.43,2.1,6.97,3.79,14.03,4.63,21.27,0,.06-.02.13-.04.27-.52,0-1.06.04-1.58-.02-.2-.02-.43-.24-.56-.43-.97-1.38-1.94-2.78-2.87-4.18-.24-.37-.5-.54-.96-.52-.9.05-1.95-.24-2.66.14-.71.38-1.09,1.39-1.6,2.13-.46.67-.98,1.31-1.34,2.03-.46.94-1.17.96-2.1.79.3-1.98.54-3.95.89-5.91Zm9.24,5.92h-6.93c.83-1.23,1.6-2.37,2.37-3.52.72,0,1.44,0,2.16.01.78,1.14,1.56,2.28,2.4,3.5Zm-11.31,1.49c.2-.05.41-.04.62-.04,6.25,0,12.5,0,18.75,0,.09,0,.19,0,.28,0,.47,0,.55.56.01.56-2.55,0-5.09.01-7.64.01h-2.01c-3.13,0-6.25,0-9.38,0-.21,0-.42,0-.62-.03-.08-.01-.21-.15-.2-.21.02-.11.1-.27.19-.3Zm-28.53-10.31c1.18-9.3,3.34-18.38,6.05-27.35.14-.48.32-.68.85-.67,1.55.03,3.1.02,4.66,0,.45,0,.65.15.77.59,2.27,7.57,4.21,15.21,5.41,23.02.4,2.61.67,5.23.99,7.85.02.2,0,.4,0,.68-1.03,0-2.02.03-3.01-.02-.21-.01-.46-.27-.61-.48-1.25-1.79-2.49-3.58-3.7-5.39-.29-.44-.61-.62-1.14-.59-.88.04-1.76.03-2.64,0-.45-.02-.71.15-.96.52-1.2,1.82-2.43,3.61-3.62,5.43-.26.4-.55.55-1.02.53-.76-.03-1.52,0-2.44,0,.14-1.46.24-2.79.41-4.12Zm13.73,4.05h-9.35c.79-1.18,1.52-2.27,2.25-3.36q1.17-1.75,3.26-1.64c.19,0,.44.07.54.21,1.09,1.55,2.15,3.12,3.3,4.8Zm-20.12,1.45h31c.2,1.03.17,1.06-.81,1.07-9.77,0-19.55,0-29.32,0h-.87v-1.07Zm-18.79-.3c.92-5.91,2.34-11.7,4.01-17.43.19-.65.44-.96,1.18-.9.9.08,1.81.04,2.71.01.42-.01.63.13.73.54,1.13,4.53,2.34,9.05,3.37,13.6.55,2.43.79,4.93,1.17,7.4.02.13,0,.27,0,.39-1.44.29-1.6.23-2.38-.9-.83-1.2-1.66-2.4-2.47-3.61-.25-.38-.52-.59-1.01-.56-.88.05-1.9-.23-2.59.14-.69.36-1.07,1.34-1.57,2.06-.46.67-.98,1.31-1.34,2.03-.49,1-1.25,1.07-2.28.85.16-1.21.29-2.42.47-3.62Zm9.77,3.65h-6.93c.84-1.25,1.61-2.41,2.41-3.55.21-.3,1.93-.22,2.13.08.78,1.11,1.54,2.24,2.38,3.47Zm-15.45,1.46c.15-.04.32-.02.48-.02,6.35,0,12.69,0,19.04,0,.09,0,.2-.03.28,0,.19.09.38.21.56.31-.19.1-.38.29-.58.29-3.27.02-6.53.01-9.8.01-3.15,0-6.3,0-9.45,0-.18,0-.39.03-.55-.03-.11-.04-.22-.21-.24-.34-.01-.07.15-.21.25-.24Zm-2.39,4.93c.02-.16-.02-.33,0-.49.05-.54-.09-1.28.21-1.56.58-.54,1.3-.95,2.23-.94,6.53.04,13.06.02,19.59,0,.54,0,.9.05.89.7,0,.18.12.35.15.53.08.75.5.96,1.23.92,1.18-.06,1.18-.02,1.14,1.15,0,.14-.03.27-.05.53h-.8c-7.9,0-15.79-.02-23.69,0-.66,0-.95-.18-.88-.85Zm16.63,12.67h-4.5v-4.69c.43-.52.76-.93,1.19-1.45.25-.14.67-.38,1.05-.6.33.2.75.45,1,.6.41.45.72.78,1.02,1.13.11.13.23.29.23.44.02,1.5.01,3,.01,4.57Zm8.07.46c-1.99-.03-3.98-.01-5.98-.02-.2,0-.4-.03-.7-.05,0-.98,0-1.92,0-2.86,0-.81,0-1.62-.03-2.43-.02-.55-.21-1.03-.74-1.33-.15-.09-.2-.34-.33-.48-.32-.33-.67-.64-1.01-.94-.16-.14-.34-.28-.53-.38-.35-.2-.84-.64-1.05-.53-.94.48-1.99.87-2.55,1.88-.07.14-.1.36-.21.41-.86.41-.87,1.18-.88,1.96-.01,1.39,0,2.78,0,4.17,0,.31.02.6-.45.6-2.64-.02-5.28-.02-7.92-.02-.04,0-.08-.04-.18-.08-.01-.22-.04-.47-.04-.72,0-3.08.01-6.16-.01-9.24,0-.62.15-.84.81-.84,7.25.02,14.5.02,21.75,0,.61,0,.79.18.78.79-.03,3.13-.02,6.25,0,9.38,0,.57-.15.76-.74.75Zm10.44-.51h-6c0-2.09,0-4.12.01-6.16,0-.15.12-.39.23-.43.74-.23,1.01-.76.97-1.54.93.07,1.53-.28,1.75-1.25.34.82.76,1.41,1.76,1.19.06.78.27,1.42,1.1,1.62.09.02.17.26.17.4.01,2.04,0,4.07,0,6.17Zm2.43.48h-1.02v-.79c0-1.92,0-3.85,0-5.77,0-.77-.16-1.47-.99-1.82-.15-.06-.25-.3-.31-.48-.22-.69-.57-1.2-1.37-1.29-.15-.02-.32-.16-.42-.29-.89-1.12-1.73-1.13-2.6-.02-.1.13-.26.3-.41.31-.84.07-1.19.62-1.42,1.32-.05.16-.13.39-.26.44-.88.34-1.01,1.08-1.02,1.87-.01,1.9,0,3.8,0,5.7v.83h-.89v-13.84h10.71v13.83Zm7.01-.47h-3.67c0-1.25-.11-2.51.05-3.73.06-.49.7-.92,1.11-1.33.17-.17.44-.24.79-.42.51.46,1.08.97,1.64,1.49.07.06.07.22.07.33,0,1.2,0,2.41,0,3.67Zm1.81-.66c0,.19-.05.37-.07.56-.09,0-.18,0-.27,0-.02-.23-.07-.46-.07-.69,0-.97,0-1.95-.01-2.92,0-.62-.11-1.18-.71-1.57-.22-.14-.24-.57-.46-.74-.59-.46-1.23-.85-1.86-1.25-.08-.05-.26-.07-.33-.01-.72.52-1.67.75-2.12,1.63-.03.06-.03.16-.08.19-1.19.78-.8,2-.85,3.09-.03.6.01,1.21-.02,1.81,0,.16-.15.32-.23.48-.1-.16-.3-.33-.3-.49-.02-1.9-.01-3.8-.01-5.7,0-1.92.01-3.85,0-5.77,0-.48.1-.72.65-.71,2.04.02,4.08.02,6.12,0,.48,0,.64.15.63.64-.02,3.82,0,7.65-.01,11.47Zm9.58.65h-6.02v-1.65c0-1.41,0-2.82,0-4.23,0-.39.13-.62.51-.86.41-.25.63-.8,1.06-1.38.69.12,1.15-.4,1.46-1.37.32.95.75,1.54,1.73,1.31.03.88.36,1.5,1.25,1.64v6.55Zm1.96.26c-.03.1-.17.23-.26.23-.09,0-.23-.14-.25-.24-.04-.18-.02-.37-.02-.55,0-1.83,0-3.66,0-5.49,0-.87-.05-1.73-1.06-2.14-.15-.06-.22-.38-.3-.59-.22-.61-.57-1.04-1.26-1.15-.19-.03-.4-.18-.52-.34-.81-1.03-1.71-1.05-2.52-.03-.13.16-.33.34-.51.37-.76.1-1.1.6-1.33,1.25-.07.2-.17.46-.33.53-.76.34-.95.97-.95,1.7,0,1.95,0,3.89,0,5.84,0,.25,0,.5,0,.82-.27.02-.48.04-.77.06-.02-.3-.04-.55-.04-.79,0-4.1.01-8.2-.02-12.3,0-.67.18-.86.85-.85,2.83.04,5.65.02,8.48.02h.86v13.11c0,.19.02.38-.03.55Zm-15.84-15.07h0c-5.68,0-11.36-.02-17.04.01-.71,0-.88-.28-.88-.88,0-.76,0-1.53-.04-2.29-.03-.48.19-.72.57-.99,1.05-.74,2.16-.97,3.44-.96,9.71.04,19.42,0,29.14.07.9,0,1.81.59,2.7.95.11.04.17.31.17.48.02.93.01,1.85,0,2.78,0,.57-.23.86-.89.85-5.73-.02-11.45-.01-17.18-.01Zm30.3,14.92c-1.46,0-2.84.01-4.22-.02-.11,0-.32-.26-.32-.41-.02-1.41-.02-2.82,0-4.24,0-.14.15-.3.26-.42.28-.33.58-.64.78-1.02.42-.24.84-.48,1.21-.69.31.16.74.28,1.02.55.47.45,1.15.97,1.21,1.52.17,1.53.06,3.08.06,4.71Zm9.55.32h-8.11c-.02-.25-.06-.52-.06-.78,0-1.37,0-2.73-.02-4.1,0-.71-.08-1.4-.85-1.76-.13-.06-.16-.3-.25-.46-.55-1-1.63-1.29-2.5-1.85-.13-.08-.48.1-.69.22-.46.27-1.04.48-1.32.89-.65.96-1.79,1.64-1.73,3.04.06,1.34.01,2.69.01,4.03v.79h-7.04v-10.85h22.55v10.84Zm1.18-12.28c-7.74-.01-15.48-.01-23.22-.02-.16,0-.31-.03-.52-.05v-1.48c1.75.35,1.79-1.08,2.33-2.21h.62c6.39,0,12.79.03,19.18.03,2.27,0,2.26.36,2.26,1.14,0,.65,0,1.3.01,1.95,0,.47-.19.65-.67.65Z"/>
  </g>
</svg>