<?xml version="1.0" encoding="UTF-8"?>
<svg id="Layer_1" data-name="Layer 1" xmlns="http://www.w3.org/2000/svg" viewBox="0 0 94 94">
  <defs>
    <style>
      .cls-1 {
        fill: #fff;
        font-family: Poppins-Regular, Poppins;
        font-size: 8px;
      }

      .cls-2 {
        stroke-width: 0px;
      }
    </style>
  </defs>
  <text class="cls-1" transform="translate(0 -4.18)"><tspan x="0" y="0">Ghaziabad</tspan></text>
  <g>
    <path class="cls-2" d="m70.57,22.77c.21,0,.49-.32.6-.57.11-.22.05-.52.04-.79-.03-.5.18-1.22-.61-1.25-.86-.03-.62.73-.66,1.08,0,.43-.08.73.02.95.12.24.4.56.61.56Z"/>
    <path class="cls-2" d="m23.65,22.77c.21,0,.47-.32.6-.56.1-.19.02-.47.02-.71h0c0-.24.08-.53-.02-.71-.14-.25-.42-.43-.63-.63-.19.21-.51.39-.55.62-.09.47-.09.97,0,1.44.05.23.38.56.58.56Z"/>
    <path class="cls-2" d="m47.44,12.43c.74,0,.59-.69.59-1.17,0-.5.17-1.23-.62-1.21-.74.02-.48.74-.55,1.21.06.47-.18,1.17.58,1.17Z"/>
    <path class="cls-2" d="m50.28,58.29c-1.46-2.18-4.47-2.2-5.84.03-.48.78-.84,1.75-.9,2.65-.16,2.23-.14,4.47-.17,6.7-.02,1.01,0,1.01.98.97.09,0,.18-.03.34-.06v-5.5h5.3v5.53h1.26c.03-.16.08-.3.08-.44,0-1.92.02-3.84-.01-5.76-.03-1.44-.21-2.87-1.04-4.11Zm-5.49,3.35c.1-1.18.2-2.34,1.19-3.14.75-.6,1.68-.6,2.48-.17,1.27.68,1.28,2,1.53,3.31h-5.19Z"/>
    <path class="cls-2" d="m47.38,63.69c-.86-.01-1.72.63-1.78,1.51-.08,1.11-.02,2.22-.02,3.39h1.32c0-.94-.03-1.84.02-2.73.02-.28.24-.75.41-.77.53-.06.46.43.47.78,0,.89,0,1.79,0,2.71h1.33c0-1.15.05-2.24-.02-3.33-.05-.9-.85-1.55-1.73-1.57Z"/>
    <path class="cls-2" d="m50.71,49.89c0,.46.18.89.69.82.31-.04.58-.39,1.08-.76-.48-.41-.73-.78-1.04-.84-.5-.1-.72.32-.73.78Z"/>
    <path class="cls-2" d="m47.21,50.71c.31-.02.59-.36,1.1-.7-.45-.44-.68-.83-.98-.9-.48-.12-.74.25-.76.74-.02.46.12.9.64.86Z"/>
    <path class="cls-2" d="m43.11,49.11c-.51-.08-.7.35-.7.81,0,.47.21.89.71.79.31-.06.56-.42,1.05-.82-.49-.38-.75-.74-1.06-.79Z"/>
    <path class="cls-2" d="m66.29,78.27c1.41.26,1.43.24,1.43-.96,0-.8,0-1.6,0-2.41v-2.09h5.27v5.52h1.22c0-2.53.04-5-.02-7.47-.02-1.1-.4-2.15-1.08-3.04-1.41-1.84-4.09-1.92-5.45-.06-.54.73-.99,1.69-1.07,2.58-.22,2.63-.22,5.28-.31,7.94Zm3.83-10.45c1.7-.13,2.64,1.04,2.78,3.57h-5.05c-.2-1.88.81-3.46,2.27-3.57Z"/>
    <path class="cls-2" d="m70.46,73.45c-.83-.05-1.73.48-1.8,1.27-.11,1.19-.03,2.39-.03,3.58q1.28.19,1.28-1.02c0-.58-.04-1.17.02-1.74.03-.26.25-.49.39-.73.16.25.44.49.46.74.06.91.02,1.83.02,2.79h1.33c0-1.15.04-2.24-.01-3.33-.04-.85-.81-1.51-1.65-1.56Z"/>
    <path class="cls-2" d="m66.31,60.75c.3-.06.54-.45.99-.85-.48-.35-.75-.7-1.06-.75-.49-.07-.69.34-.69.8,0,.5.23.91.76.8Z"/>
    <path class="cls-2" d="m74.58,60.75c.31-.05.56-.42,1.03-.79-.46-.38-.71-.74-1.02-.81-.49-.1-.71.29-.72.76-.01.5.18.92.72.84Z"/>
    <path class="cls-2" d="m70.42,60.76c.31-.05.56-.41,1.05-.8-.49-.39-.74-.75-1.05-.8-.51-.08-.69.33-.69.8,0,.47.18.89.69.8Z"/>
    <path class="cls-2" d="m19.34,77.32c-.01,1.18.05,1.21,1.38.94v-5.46h5.27v5.51h1.25c0-2.41.07-4.77-.04-7.11-.05-.96-.37-1.96-.78-2.85-.58-1.27-1.7-1.96-3.09-1.96-1.42,0-2.55.71-3.13,2.01-.39.87-.68,1.84-.75,2.78-.13,2.03-.1,4.08-.12,6.12Zm2.68-9.14c.74-.55,1.64-.56,2.42-.11,1.24.71,1.32,1.99,1.46,3.31h-5.13c.1-1.23.2-2.42,1.25-3.2Z"/>
    <path class="cls-2" d="m23.41,73.45c-1-.04-1.8.67-1.86,1.74-.05.9,0,1.8-.02,2.69,0,.38.16.52.53.5.24-.01.48,0,.84,0,0-1.09-.02-2.06.02-3.02,0-.19.28-.37.43-.55.15.18.36.35.44.56.08.19.02.43.02.65,0,.77,0,1.53,0,2.3h1.34c0-1.06.02-2.06,0-3.05-.03-1.03-.76-1.78-1.72-1.81Z"/>
    <path class="cls-2" d="m27.32,60.6c.31-.05.57-.42,1.05-.8-.48-.38-.74-.74-1.05-.79-.5-.09-.71.33-.71.79,0,.46.21.88.71.8Z"/>
    <path class="cls-2" d="m23.22,60.6c.31-.06.55-.43,1.03-.82-.49-.37-.75-.72-1.06-.77-.5-.07-.69.34-.69.81,0,.47.22.87.71.78Z"/>
    <path class="cls-2" d="m19.1,60.6c.3-.05.55-.42,1.02-.82-.48-.38-.74-.73-1.04-.77-.5-.07-.68.33-.68.81,0,.48.21.87.7.79Z"/>
    <path class="cls-2" d="m49.38,27.33c0-1.07,0-2.14,0-3.21,0-.58-.27-.86-.84-.86-.73,0-1.46,0-2.18,0-.61,0-.86.32-.86.91,0,2.11,0,4.22,0,6.34,0,.61.28.9.88.9.7,0,1.41,0,2.11,0,.64,0,.91-.32.9-.96-.02-1.04,0-2.09,0-3.13Zm-1.39,2.69h-1.08v-5.38h1.08v5.38Z"/>
    <path class="cls-2" d="m47.45,33.6c-1.09,0-1.93.83-1.94,1.92,0,1.09.82,1.93,1.92,1.94,1.09,0,1.94-.83,1.95-1.92,0-1.08-.84-1.94-1.92-1.94Zm-.04,2.46c-.14.03-.5-.32-.51-.51-.01-.22.24-.46.51-.9.3.43.6.67.57.87-.03.21-.34.49-.57.54Z"/>
    <path class="cls-2" d="m22.22,41.49c.63,0,1.26,0,1.89,0,.84,0,1.04-.2,1.04-1.02,0-1.02,0-2.04,0-3.06,0-1.07,0-2.14,0-3.21,0-.58-.28-.86-.84-.86-.73,0-1.46,0-2.19,0-.61,0-.87.31-.86.91.01,2.11.01,4.23,0,6.34,0,.66.32.92.95.91Zm.46-6.76h1.09v5.38h-1.09v-5.38Z"/>
    <path class="cls-2" d="m23.36,43.67c-1.14,0-2.02.82-2.03,1.92-.01,1.06.92,2,1.99,2,1.08,0,1.99-.92,1.98-2,0-1.08-.84-1.91-1.94-1.92Zm.02,2.45c-.19,0-.57-.33-.54-.44.05-.24.28-.55.5-.6.17-.04.42.26.77.51-.32.26-.52.54-.73.54Z"/>
    <path class="cls-2" d="m69.69,41.49c.68,0,1.36,0,2.04,0,.76-.01.97-.23.98-1.03,0-1,0-1.99,0-2.99,0-1.07,0-2.14,0-3.21,0-.64-.3-.94-.93-.93-.68,0-1.36,0-2.04,0-.63,0-.95.29-.95.92,0,2.11,0,4.23,0,6.34,0,.6.3.9.9.89Zm.5-6.78h1.14v5.39h-1.14v-5.39Z"/>
    <path class="cls-2" d="m70.8,43.67c-1.15-.01-2.02.81-2.04,1.91-.02,1.06.91,2.01,1.98,2.01,1.07,0,1.99-.91,1.99-1.99,0-1.09-.84-1.92-1.93-1.93Zm-.09,2.76c-.23-.41-.48-.64-.45-.83.03-.21.32-.38.49-.57.19.21.49.39.54.62.04.15-.28.39-.59.77Z"/>
    <path class="cls-2" d="m44.36,45.59c1.02.01,2.04,0,3.06,0,1.07,0,2.14,0,3.21,0,.56,0,.87-.26.88-.83.01-.75,0-1.51,0-2.26,0-.53-.28-.82-.81-.83-2.16,0-4.32,0-6.49,0-.56,0-.85.3-.84.87,0,.68,0,1.36,0,2.04,0,.78.22,1,.99,1.01Zm.39-2.57h3.26c.39,0,.78,0,1.17,0,1.11,0,1.14.04.89,1.2h-5.32v-1.2Z"/>
    <path class="cls-2" d="m73.77,51.75c-2.16-.01-4.33,0-6.49,0-.56,0-.85.31-.85.87,0,.73,0,1.46,0,2.19,0,.61.33.87.93.86,1.07-.01,2.14,0,3.21,0,1.04,0,2.09,0,3.13,0,.56,0,.87-.26.88-.83.01-.75,0-1.51,0-2.26,0-.53-.29-.82-.81-.83Zm-.59,2.54h-5.37v-1.14h5.37v1.14Z"/>
    <path class="cls-2" d="m20.13,55.67c1.02-.02,2.04,0,3.06,0,1.07,0,2.14,0,3.21,0,.57,0,.87-.26.89-.82.02-.75.01-1.51,0-2.26,0-.57-.33-.84-.88-.84-2.14,0-4.28,0-6.41,0-.55,0-.85.29-.85.86,0,.7.01,1.41,0,2.11-.02.69.33.96.99.94Zm.41-2.58c1.68,0,3.36-.06,5.02.03.75.04.24.72.39,1.18h-5.41v-1.21Z"/>
    <path class="cls-2" d="m79.16,56.78c-.05.04-.1.07-.15.11v-6.13c.38-.4.85-.67.87-.96.01-.29-.43-.61-.79-1.07.05-6.06-.04-12.35-2.93-18.26.08-.05.23-.1.29-.2.12-.24.31-.55.24-.74-.07-.2-.41-.42-.64-.44-.89-.05-1.79-.02-2.54-.02-.24-1.04-.27-2.13-.75-2.94-.5-.83-1.44-1.39-2.17-2.04-.53.43-1.1.89-1.67,1.36-.84.71-1.25,1.58-1.06,2.7.13.84.02.94-.8.94-.58,0-1.18-.06-1.75.03-.36.05-.8.24-.97.52-.1.17.24.61.43,1.06-2.79,5.66-2.86,11.95-2.83,18.31-.45.16-1.22.06-1.1.81.05.31.57.54.88.81.07-.05.14-.1.21-.16v6.42c-.44.13-1.2.03-1.09.78.05.31.57.55.88.81.08-.05.16-.11.24-.16.02.28.04.56.04.84,0,6.57,0,13.13.02,19.7,0,.71-.16.98-.92.95-1.72-.06-3.44-.02-5.24-.02v-31.49c.06.04.12.08.18.13.26-.31.67-.6.72-.93.03-.22-.47-.51-.73-.78-.05.04-.11.08-.16.12v-6.14c.41-.42.86-.68.9-.98.03-.26-.41-.58-.71-.83-.07-6.28-.12-12.6-3.03-18.5.12-.09.31-.15.38-.28.11-.2.25-.5.17-.64-.12-.21-.41-.44-.65-.46-.85-.05-1.7-.02-2.65-.02-.03-.33-.11-.66-.06-.97.21-1.29-.34-2.21-1.32-2.95-.49-.38-.96-.79-1.42-1.16-.47.38-.99.82-1.53,1.24-.89.69-1.35,1.57-1.23,2.72.04.35,0,.71,0,1.16-.9,0-1.72-.05-2.54.02-.35.03-.84.22-.98.49-.11.21.23.64.41,1.08-2.79,5.69-2.88,11.98-2.82,18.34-.44.14-1.17-.01-1.14.78.03.71.63.61,1.14.66v6.45c-.45.11-1.17-.04-1.14.74.02.67.59.67,1.14.65v31.48c-.16.03-.32.08-.48.08-1.9,0-3.79,0-5.69.01-.46,0-.65-.13-.65-.62.01-6.84.01-13.67.01-20.51,0-.09.03-.19.2-.18.25-.29.7-.59.7-.88,0-.29-.45-.59-.7-.88-.05.03-.11.07-.16.1v-6.32c.06.04.12.07.19.11.24-.29.66-.58.68-.89.01-.27-.43-.56-.67-.83-.16-3.06-.22-6.23-.52-9.37-.3-3.15-1.02-6.23-2.45-8.84.2-.51.48-.87.45-1.19-.06-.54-.59-.46-1-.46-.75,0-1.5,0-2.11,0-.24-1.05-.26-2.14-.75-2.95-.49-.83-1.45-1.38-2.16-2.03-.47.39-.99.83-1.53,1.25-.87.68-1.33,1.52-1.22,2.65.03.33,0,.67,0,1.12-.89,0-1.74-.05-2.58.02-.36.03-.85.21-.99.47-.11.22.22.66.41,1.17-1.42,2.63-2.15,5.7-2.43,8.86-.28,3.12-.36,6.25-.52,9.18-.38.37-.7.68-1.02.99.31.29.62.57.94.86.06-.05.13-.1.2-.15v6.42c-.5.07-1.19.03-1.09.73.02.14.14.26.27.38h.81v.34s0,0,0,0v21.39h0v9.84h64.16v-10.11s-.03-.05-.04-.07c-.05-.09-.02-.24-.02-.36,0-6.71,0-13.43,0-20.14,0-.17.01-.34.18-.4.26-.31.67-.6.71-.94.03-.23-.46-.53-.71-.79Zm-61.55,31.37h-1.23c-.02-.24-.05-.49-.05-.75,0-1.72,0-3.45,0-5.17q0-1.17,1.27-.99v6.91Zm-1.29-9.12c.02-6.68.01-13.37.01-20.05,0-.19.02-.38.04-.65h14.11v21.41c-.23.02-.46.06-.69.06-4.23,0-8.46,0-12.69.01-.6,0-.79-.17-.79-.78Zm4.07,9.12h-1.32v-6.96h1.32v6.96Zm4.82,0h-1.18c0-1.13,0-2.24,0-3.35,0-.66.03-1.32-.04-1.97-.02-.18-.32-.48-.49-.47-.18,0-.42.26-.53.46-.09.17-.03.43-.03.65,0,1.55,0,3.1,0,4.72h-1.16v-3.35c0-.66-.01-1.31,0-1.97.03-.98.65-1.63,1.56-1.67,1.06-.05,1.8.49,1.84,1.52.07,1.79.02,3.59.02,5.44Zm2.75.03h-1.34v-7.01c.33,0,.64-.04.94.02.15.03.38.25.38.39.02,2.18.02,4.36.02,6.61Zm2.55-.03h-1.1v-6.94h1.1v6.94Zm.01-31.23h-14.12v-6.42h14.12v6.42Zm.39-8.7c-.01.26-.05.53-.07.84h-14.74c-.14-5.52-.02-10.92,1.9-16.1.94-2.53.97-2.52,3.65-2.52,1.77,0,3.55.02,5.32-.03.57-.02.87.19,1.13.67,1.23,2.23,1.83,4.65,2.23,7.12.53,3.32.7,6.67.58,10.03Zm7.87,39.94h-6.76c-.02-.19-.06-.4-.06-.61,0-1.9.01-3.79-.01-5.69,0-.54.16-.71.71-.71,2.02.03,4.03.01,6.13.01v6.99Zm2.65,0h-1.21v-6.93h1.21v6.93Zm2.79,0h-1.31v-6.96h1.31v6.96Zm2.54,0h-1.07v-6.96h1.07v6.96Zm2.24.02h-1.05v-6.98h1.05v6.98Zm.03-8.44h-1.14v-.8c0-1.94,0-3.89,0-5.83,0-.4,0-.85-.53-.86-.56-.01-.54.44-.54.84,0,1.94,0,3.89,0,5.83v.76c-1.14.24-1.19.2-1.19-.82,0-1.97-.02-3.94,0-5.9.02-1.41,1.12-2.25,2.31-1.81.62.23,1.07.69,1.08,1.34.04,2.4.02,4.8.02,7.25Zm2.76,8.42h-1.35v-6.96h1.35v6.96Zm1.41-18.03h-1.34v9.61h-1.46v-9.61h-6.09c-.02.32-.04.61-.04.89,0,2.67-.01,5.35,0,8.02,0,.55-.12.77-.72.77-.6,0-.73-.23-.72-.78.02-2.65,0-5.3,0-7.95v-.95h-1.35v9.6h-1.27v-31.45h14.14v31.38c-1.01.3-1.12.22-1.12-.77,0-2.63,0-5.25,0-7.88,0-.29-.03-.57-.04-.88Zm1.17,18.03h-1.08c-.02-.25-.04-.51-.05-.77,0-1.77,0-3.54,0-5.3,0-1.02.04-1.05,1.13-.83v6.9Zm0-41.32h-14.18v-6.45h14.18v6.45Zm.34-8.11c0,.07-.03.14-.07.26h-14.65c-.04-.16-.09-.3-.1-.44-.14-4.63.03-9.24,1.3-13.74.38-1.37,1.05-2.66,1.59-3.98.16-.39.44-.5.86-.5,2.43.01,4.86,0,7.29-.02.46,0,.7.16.92.54,1.23,2.14,1.83,4.49,2.25,6.89.64,3.63.72,7.3.61,10.98Zm7.23,49.42h-6.13v-7c1.08,0,2.12-.02,3.16,0,.96.02,1.92.07,2.89.11.03.97.08,1.93.09,2.9.02,1.31,0,2.62,0,3.98Zm1.39-29.01v-.8h14.19c.01.3.04.56.04.82,0,6.56,0,13.13,0,19.69,0,.94,0,.94-.97.95-4.11,0-8.22-.01-12.32.01-.69,0-.96-.12-.95-.91.04-6.59.02-13.17.02-19.76Zm1.26,29.04h-1.2v-6.98h1.2v6.98Zm2.78,0h-1.34v-6.97h1.34v6.97Zm4.85-.02h-1.13c-.01-.24-.04-.5-.04-.76,0-1.43,0-2.86,0-4.3,0-.38-.05-.78-.55-.78-.5,0-.55.39-.55.77,0,1.41,0,2.82,0,4.22,0,.26,0,.52,0,.86h-1.18v-.93c0-1.43-.02-2.86,0-4.3.02-1.13.69-1.79,1.76-1.78,1.02.01,1.68.67,1.69,1.77.02,1.72,0,3.44,0,5.2Zm2.68,0h-1.28c-.03-.11-.09-.22-.09-.33,0-2.04,0-4.08-.01-6.12,0-.4.13-.59.55-.56.26.02.52,0,.84,0v7.01Zm2.66-.02h-1.17v-6.91c1.15-.19,1.17-.17,1.17.89,0,1.98,0,3.97,0,6.01Zm0-31.92c0,.21-.03.43-.04.69h-14.14v-6.43c.24-.02.45-.04.67-.04,4.25,0,8.5.01,12.76-.02.61,0,.79.17.78.77-.04,1.68-.01,3.35-.02,5.03Zm.34-7.74c0,.17-.04.33-.06.58h-14.64c-.04-.05-.1-.09-.1-.13-.18-5.24-.01-10.46,1.7-15.49,1.03-3.04,1.06-3.03,4.25-3.03,1.6,0,3.21.03,4.81-.03.67-.03,1,.23,1.3.78,1.16,2.15,1.75,4.48,2.14,6.85.58,3.46.71,6.96.6,10.47Z"/>
  </g>
</svg>