<?xml version="1.0" encoding="UTF-8"?>
<svg id="Layer_1" data-name="Layer 1" xmlns="http://www.w3.org/2000/svg" viewBox="0 0 94 94">
  <defs>
    <style>
      .cls-1 {
        fill: #fff;
        font-family: Poppins-Regular, Poppins;
        font-size: 8px;
      }

      .cls-2 {
        stroke-width: 0px;
      }
    </style>
  </defs>
  <text class="cls-1" transform="translate(0 -4.18)"><tspan x="0" y="0">Gurgaon</tspan></text>
  <g id="oKGDKJ">
    <g>
      <path class="cls-2" d="m57.07,27.8c-.46,0-.87,0-1.27,0-.21,0-.29.09-.31.29-.03.32-.07.63-.12.94-.06.38-.31.61-.63.58-.3-.03-.47-.26-.45-.66.01-.27.05-.53.08-.79.03-.21-.02-.3-.26-.29-2.09.1-4.17.22-6.26.26-1.27.03-2.54-.07-3.81-.12-1.02-.04-2.05-.08-3.07-.12-.13,0-.26.01-.41.02.04.38.09.74.1,1.09.02.38-.18.57-.55.58-.22,0-.36-.09-.41-.29-.08-.37-.16-.74-.2-1.11-.03-.27-.17-.38-.42-.38-.34,0-.68,0-1.01-.01-.18,0-.23.06-.21.24.17,1.34.34,2.68.5,4.02.02.15.03.31.03.46,0,.34-.17.51-.5.54-.31.03-.5-.11-.55-.45-.16-1.15-.3-2.29-.44-3.44-.05-.41-.1-.81-.17-1.22-.02-.1-.14-.17-.21-.26-.05.09-.15.19-.15.28-.05.93-.08,1.86-.13,2.79-.04.68-.11,1.36-.14,2.04-.03,1-.02,2-.05,3.01-.05,1.5-.08,3.01-.2,4.51-.03.39-.01.76-.01,1.15,0,1.5-.09,3.01-.14,4.51-.09,2.63-.18,5.26-.27,7.89,0,.13.01.26.02.45.47,0,.92,0,1.37,0,.31,0,.43.18.43.47,0,.37-.09.52-.42.55-.38.04-.76.05-1.13.04-.26,0-.34.08-.34.33-.02.75-.04,1.5-.09,2.24-.02.28.08.37.34.37.65,0,1.29,0,1.94,0,.38,0,.56.17.57.52.01.38-.18.58-.58.59-.68,0-1.35,0-2.03-.02-.18,0-.29.02-.29.24-.02.82-.05,1.64-.09,2.46-.01.27.17.26.35.26.88,0,1.76,0,2.64,0,.12,0,.25,0,.37.03.34.09.48.27.44.53-.06.41-.17.51-.58.51-.94,0-1.88,0-2.83,0-.44,0-.44,0-.45.43-.02.69-.05,1.37-.09,2.06-.02.47-.01.48.45.48,1.24,0,2.48.01,3.72.03.46,0,.6.14.6.55,0,.29-.23.51-.61.51-1.28.01-2.56.03-3.84.02-.31,0-.39.11-.39.39-.01.74-.04,1.47-.07,2.21-.01.26.08.34.33.33,1.44,0,2.89,0,4.33,0,.21,0,.43,0,.64.05.3.06.45.28.41.58-.03.32-.19.47-.52.47-1.63,0-3.26,0-4.89,0-.28,0-.38.08-.38.36,0,.74-.04,1.47-.06,2.21,0,.11,0,.22,0,.37.15,0,.27,0,.39,0,1.81,0,3.63,0,5.44,0,.18,0,.37.03.54.09.24.09.33.28.3.54-.03.28-.17.43-.44.46-.11.01-.22,0-.34,0-1.86,0-3.73,0-5.59,0-.28,0-.37.08-.37.37,0,.72-.05,1.43-.08,2.15-.02.4.02.44.42.44,2.09,0,4.18,0,6.27,0,.17,0,.35,0,.52.02.27.03.44.17.45.45.01.28-.08.51-.38.59-.16.04-.32.05-.48.05-2.16,0-4.32,0-6.48,0-.32,0-.4.12-.4.41,0,.73-.03,1.45-.06,2.18-.01.24.04.35.31.35,2.45,0,4.9,0,7.34,0,.15,0,.31,0,.46.01.33.03.49.21.5.54.01.3-.15.51-.47.53-.44.03-.88.01-1.32.01-2.1,0-4.2,0-6.3.01-.09,0-.18.01-.28,0-.24-.02-.32.09-.31.33,0,.43-.02.86-.05,1.29-.02.26.08.34.34.34,3.62,0,7.23,0,10.85,0,.35,0,.7,0,1.04,0,.24,0,.34-.07.3-.32-.12-.86-.23-1.72-.34-2.59-.49-3.85-.96-7.7-1.45-11.55-.22-1.77-.48-3.53-.7-5.3-.04-.34-.13-.7.21-.99-.54-.29-.41-.84-.47-1.28-.39-2.83-.74-5.66-1.11-8.49-.39-3-.79-6.01-1.17-9.01-.42-3.3-.83-6.6-1.25-9.9-.23-1.83-.46-3.66-.69-5.48-.05-.41.03-.58.31-.68.35-.13.65.03.71.39.13.87.25,1.74.36,2.62.11.8.22,1.6.32,2.41.03.25.12.27.34.21,1.76-.52,3.51-1.04,5.27-1.54.2-.06.45-.05.66,0,1.59.45,3.18.93,4.77,1.39.13.04.26.07.38.11.42.11.43.08.48-.35.14-1.21.31-2.42.46-3.63.05-.41.08-.82.16-1.22.09-.42.48-.57.83-.38.22.12.25.32.23.53-.07.66-.14,1.32-.23,1.98-.24,1.89-.48,3.78-.72,5.67-.32,2.48-.64,4.95-.96,7.43-.26,1.99-.5,3.98-.76,5.97-.32,2.47-.64,4.93-.96,7.4-.22,1.71-.42,3.41-.66,5.12-.04.3-.35.62-.27.86.1.32.1.62.06.92-.3,2.33-.61,4.67-.91,7-.28,2.15-.54,4.31-.82,6.46-.03.22-.04.45-.3.56-.49.2-.85-.09-.79-.64.1-.84.21-1.69.31-2.53.26-2.02.51-4.04.77-6.06.22-1.75.45-3.49.68-5.24,0-.06,0-.14.04-.18.36-.34.14-.75.15-1.14,0-.42.11-.83.14-1.25,0-.1-.13-.26-.23-.3-.63-.2-1.27-.39-1.92-.53-.25-.05-.53-.01-.78.05-.58.14-1.14.32-1.72.47-.19.05-.23.16-.21.34.05.35.11.71.12,1.07.01.28-.04.57-.07.92.29.12.27.47.31.8.31,2.46.64,4.91.95,7.37.24,1.84.46,3.68.69,5.52.12.92.24,1.85.36,2.77.02.12.05.23.08.36.08-.02.13-.03.17-.05.55-.26.91,0,.85.61-.07.67-.17,1.34-.25,2.01-.04.3-.08.61-.11.91-.04.35,0,.39.35.39,1.01,0,2.03,0,3.04,0,2.9,0,5.8,0,8.69,0,.41,0,.41,0,.4-.43,0-.4-.02-.8-.02-1.2,0-.24-.11-.33-.34-.33-.63,0-1.27-.01-1.9-.01-1.75,0-3.5,0-5.25,0-.26,0-.51-.01-.77-.03-.29-.02-.42-.2-.44-.46-.02-.27.08-.49.36-.56.15-.04.3-.04.46-.04,2.44,0,4.88,0,7.31,0,.49,0,.49,0,.48-.49-.02-.7-.05-1.39-.06-2.09,0-.28-.09-.37-.37-.37-2.16,0-4.32,0-6.48,0-.16,0-.33-.02-.48-.06-.28-.08-.42-.26-.38-.57.04-.31.22-.46.51-.47.37-.01.74-.01,1.11-.01,1.9,0,3.81,0,5.71,0,.24,0,.33-.06.32-.31-.04-.81-.06-1.62-.08-2.43,0-.22-.13-.24-.3-.24-1.8,0-3.6.01-5.41.01-.22,0-.45-.02-.67-.06-.29-.05-.36-.26-.36-.52,0-.26.11-.43.39-.45.27-.02.55-.07.82-.07,1.67,0,3.34,0,5.01,0,.14,0,.28,0,.46,0,0-.25,0-.46,0-.68-.02-.6-.04-1.21-.06-1.81-.01-.44-.01-.45-.47-.45-1.51,0-3.01,0-4.52,0-.12,0-.25,0-.37,0-.24,0-.37-.14-.43-.37-.07-.23-.03-.45.19-.56.2-.1.44-.16.67-.16,1.52-.02,3.03-.02,4.55-.01.22,0,.32-.06.31-.29-.03-.73-.06-1.45-.09-2.18-.02-.44-.02-.45-.47-.45-1.12,0-2.23,0-3.35,0-.15,0-.31,0-.46-.01-.4-.04-.53-.18-.53-.56,0-.35.11-.47.51-.5.35-.02.7-.01,1.04-.02.99,0,1.99-.01,2.98-.02.07,0,.14-.02.18-.02,0-.54,0-1.06,0-1.58,0-.29-.03-.57-.04-.86-.01-.5-.01-.5-.52-.51-.91,0-1.82,0-2.73,0-.38,0-.6-.17-.6-.45,0-.39.19-.6.61-.6.94,0,1.88-.01,2.83,0,.29,0,.37-.1.36-.37-.03-.77-.05-1.54-.07-2.3,0-.21-.1-.28-.31-.28-.6,0-1.21,0-1.81,0-.13,0-.27-.01-.39-.04-.3-.07-.45-.28-.42-.55.03-.32.19-.5.51-.51.67-.02,1.33-.03,2-.01.29,0,.36-.1.34-.35-.02-.21-.01-.43-.01-.65,0-.26.13-.43.39-.47.27-.04.52-.04.63.27.04.11.07.24.08.36.05,1.27.09,2.54.13,3.81,0,.26.06.39.35.32.12-.03.24-.02.37-.02,1.35,0,2.7,0,4.06,0,.69,0,.81.12.81.8,0,1.28,0,2.56-.01,3.84,0,.27.06.47.33.55.21.06.28.23.24.4-.04.17-.11.42-.23.47-.3.12-.33.31-.33.59.02,2.49.02,4.98.02,7.47,0,.19-.02.39-.04.6.09,0,.16.02.24.02,3.45,0,6.9,0,10.35,0,.93,0,1.02.07,1.03,1.01.01,2.19,0,4.38,0,6.58,0,.45.01.9,0,1.35,0,.28.09.4.4.39.27-.01.55.02.82.07.27.06.36.27.34.54-.02.25-.12.44-.4.46-.13.01-.26.04-.4.04-3,0-6,.01-9,.02-3.92,0-7.84,0-11.76,0-1.91,0-3.83-.02-5.74-.02-4.77,0-9.54.01-14.31.01-2.96,0-5.92,0-8.88,0-4.02,0-8.05,0-12.07,0-.74,0-1.47-.02-2.21,0-.33,0-.45-.16-.49-.45-.04-.31.06-.51.34-.6.11-.04.24-.05.36-.06.53-.01,1.06-.03,1.6-.02.22,0,.3-.07.29-.28,0-.52,0-1.04,0-1.57,0-.77,0-1.54,0-2.3,0-.28-.11-.38-.39-.37-.37.01-.61-.22-.62-.55,0-.29.27-.51.64-.51.34,0,.38-.04.38-.42,0-1.77-.02-3.54-.02-5.32,0-.32.01-.64.04-.95.03-.38.14-.48.52-.49.68-.01,1.35-.01,2.03,0,.25,0,.35-.07.35-.33,0-.68,0-1.35.01-2.03,0-.63.16-.78.78-.78,1.6,0,3.2,0,4.79,0,.56,0,.72.15.73.71.01.69.01,1.37,0,2.06,0,.27.07.37.35.36.57-.01,1.15,0,1.72,0,.21,0,.35-.05.36-.3.01-.23.15-.35.38-.36.17,0,.22-.11.22-.26,0-.65,0-1.29,0-1.94,0-.2-.12-.27-.27-.31-.31-.07-.35-.3-.34-.56.01-.28.12-.44.42-.45.06,0,.17-.12.17-.18.02-.7.02-1.39,0-2.09,0-.07-.11-.16-.19-.19-.26-.08-.37-.27-.41-.52-.04-.23.03-.42.28-.48.28-.06.34-.23.34-.49,0-1.21,0-2.42,0-3.63-.01-.95.05-1.02.99-1.02,1.17,0,2.34-.01,3.5,0,.29,0,.36-.1.37-.37.09-2.68.19-5.36.29-8.05.12-3.41.24-6.82.38-10.23,0-.16.13-.31.17-.47.03-.1.04-.22.02-.33-.03-.16-.13-.32-.13-.48.07-2.28.09-4.57.26-6.85.07-1.01-.14-1.97-.24-2.95-.14-1.48-.35-2.95-.51-4.42-.03-.3-.12-.49-.47-.52-.33-.03-.51-.28-.5-.59.01-.28.18-.44.54-.48,1.17-.12,2.34-.24,3.51-.35,1.67-.16,3.34-.32,5.01-.48.95-.09,1.9-.18,2.84-.26.25-.02.32-.13.34-.37.19-2.03.38-4.06.58-6.09.18-1.84.35-3.69.53-5.53.07-.68.13-1.37.2-2.05.04-.41.22-.59.56-.59.33,0,.51.22.54.61.2,2.09.4,4.18.59,6.27.19,2.06.39,4.12.58,6.18.04.41.09.81.12,1.22.01.2.09.3.29.32.55.05,1.1.12,1.65.17,2.29.22,4.59.43,6.88.65.83.08,1.65.15,2.48.23.17.02.35.03.52.07.33.08.44.22.43.53-.02.33-.18.53-.51.53-.3,0-.37.15-.4.41-.24,2.03-.46,4.07-.76,6.1-.13.88.05,1.72.06,2.58.03,1.95.13,3.89.2,5.83.12,3.2.23,6.41.35,9.61.07,1.91.14,3.83.2,5.74,0,.13,0,.27-.03.4-.06.32-.24.44-.6.44-.3,0-.38-.21-.42-.44-.03-.17-.05-.35-.05-.52,0-.19-.08-.25-.26-.25-.38,0-.76,0-1.14-.03-.35-.02-.54-.24-.53-.55,0-.3.22-.5.57-.51.33-.01.66-.03.98,0,.25.02.32-.07.31-.31-.05-1.31-.09-2.62-.14-3.93-.06-1.55-.11-3.09-.17-4.64-.14-3.93-.29-7.86-.42-11.79-.02-.61.02-1.22,0-1.83-.03-.83-.11-1.65-.15-2.48-.03-.44-.02-.88-.06-1.32,0-.1-.12-.2-.19-.3-.07.1-.19.19-.2.3-.18,1.37-.34,2.74-.51,4.11-.02.17-.05.35-.1.51-.1.35-.25.44-.61.4-.25-.03-.42-.15-.4-.41.04-.56.08-1.12.15-1.68.11-.93.23-1.85.34-2.77.01-.11,0-.22,0-.36Zm-33.39,46.22h0c-1.74,0-3.48,0-5.22,0-.41,0-.44.03-.43.44,0,1.75.03,3.5.02,5.25,0,.28.07.36.36.36,2.88,0,5.75,0,8.63.01.37,0,.74,0,1.11,0,.25,0,.49.28.49.54,0,.31-.18.51-.47.53-.15,0-.31,0-.46,0-3.07,0-6.14,0-9.21,0-.43,0-.43,0-.43.42,0,1.18,0,2.36,0,3.53,0,.68-.05.57.57.56.08,0,.16,0,.25,0,3.35,0,6.7,0,10.04.01.26,0,.34-.1.34-.34,0-.4-.01-.8,0-1.2,0-.19-.07-.29-.24-.33-.26-.06-.38-.22-.36-.49.02-.27.12-.48.41-.54.18-.04.22-.14.21-.31,0-.61,0-1.23,0-1.84,0-.19-.07-.28-.24-.33-.26-.07-.38-.28-.39-.53,0-.25.13-.43.39-.49.19-.04.23-.16.23-.34-.01-.6-.01-1.21,0-1.81,0-.18-.04-.27-.23-.36-.16-.07-.33-.29-.36-.47-.04-.22.06-.48.36-.52.19-.03.24-.14.24-.32-.01-.38-.02-.76,0-1.14,0-.24-.08-.32-.32-.31-1.75,0-3.5,0-5.25,0Zm43.9,11.62c0-.08.02-.14.02-.2,0-2.51,0-5.02.02-7.53,0-.47.03-.45-.48-.46-.91,0-1.82,0-2.73,0-.26,0-.33.09-.33.34.01,1.28,0,2.56,0,3.84,0,.2,0,.42-.06.61-.04.12-.16.27-.28.31-.48.17-.76-.07-.76-.63,0-1.56,0-3.11,0-4.67,0-.12,0-.25.02-.37.04-.3.2-.49.52-.49.5,0,1-.03,1.5-.02.3,0,.4-.05.4-.38-.02-2.64-.03-5.28-.02-7.93,0-.26-.14-.27-.33-.27-1.21,0-2.42.01-3.62,0-.25,0-.32.08-.31.32.05,1.14.09,2.27.13,3.41.08,2.27.16,4.54.24,6.81.08,2.36.17,4.73.24,7.09,0,.19.08.26.26.25.21,0,.43-.02.64,0,.25.02.32-.1.32-.33,0-.55,0-1.11,0-1.66,0-.39.19-.59.51-.59.39,0,.59.2.6.61,0,.55,0,1.11,0,1.66,0,.21.07.32.3.32.98-.01,1.97,0,2.95-.01.08,0,.16-.02.25-.03Zm-25.35-44.71c.15-.03.26-.05.36-.08,1.45-.43,2.9-.87,4.36-1.28.27-.08.59-.1.87-.04.67.15,1.32.37,1.98.57.85.25,1.71.5,2.56.75.17.05.38.15.42-.19.13-1.15.28-2.3.43-3.44.03-.25-.04-.35-.28-.41-1.62-.46-3.25-.92-4.86-1.4-.42-.12-.81-.14-1.23-.01-1.62.49-3.24.96-4.86,1.42-.21.06-.26.17-.23.35.05.39.1.77.15,1.16.11.85.21,1.7.33,2.6Zm.65,5.14c.13-.03.24-.04.34-.07,1.21-.35,2.42-.69,3.62-1.05.44-.13.85-.13,1.29,0,1.21.37,2.43.71,3.65,1.08.21.06.29.03.32-.2.14-1.19.3-2.37.46-3.56.02-.17-.04-.24-.19-.29-1.4-.41-2.81-.81-4.21-1.24-.47-.15-.92-.12-1.38.02-1.22.37-2.45.74-3.68,1.08-.71.2-.74.17-.65.91.12,1.09.28,2.17.42,3.3Zm8.51,5.21c.03-.1.05-.15.06-.2.15-1.21.29-2.42.44-3.63.02-.2-.07-.27-.25-.32-1.26-.36-2.51-.74-3.78-1.07-.26-.07-.57-.05-.83.02-1.2.32-2.38.68-3.57,1.01-.42.12-.44.12-.38.56.14,1.1.29,2.19.42,3.29.03.23.1.32.36.24,1.01-.3,2.03-.57,3.04-.86.41-.12.79-.15,1.2,0,.4.15.82.26,1.23.37.68.19,1.35.38,2.06.58Zm20.92,26.21c-.06-.02-.09-.03-.12-.03-1.09,0-2.17,0-3.26,0-.22,0-.24.13-.24.3,0,2.53,0,5.06,0,7.59,0,.26.09.33.34.33.96-.01,1.92,0,2.89,0,.39,0,.39,0,.39-.38,0-2.48,0-4.96,0-7.43,0-.12,0-.24,0-.35Zm-21.59-21.05c.03-.16.06-.27.07-.39.13-1.05.25-2.09.39-3.14.07-.51.08-.52-.42-.66-.96-.28-1.93-.54-2.89-.84-.3-.09-.57-.09-.87,0-1.03.31-2.06.61-3.09.89-.18.05-.2.15-.19.29.04.37.09.73.13,1.1.1.81.21,1.62.3,2.44.03.23.12.31.34.25.16-.05.32-.07.48-.12.66-.2,1.31-.39,1.97-.6.36-.12.71-.13,1.08,0,.41.14.82.24,1.24.36.48.14.96.27,1.47.42Zm22.7,25.06h0c0,1.25,0,2.5,0,3.75,0,.36.06.43.43.43.94,0,1.88,0,2.82,0,.18,0,.27-.06.28-.24,0-.1.02-.2.02-.31,0-2.45,0-4.89.01-7.34,0-.24-.06-.34-.32-.34-.97.01-1.94.01-2.92,0-.27,0-.32.1-.32.34.01,1.24,0,2.48,0,3.72Zm-22.85-23.73c.06-.16-.09-.25-.29-.3-.83-.24-1.65-.49-2.48-.72-.19-.05-.41-.06-.6-.01-.87.23-1.73.49-2.59.75-.18.05-.25.15-.22.36.15,1.14.28,2.27.4,3.41.03.28.15.35.41.27.61-.19,1.23-.39,1.85-.55.25-.06.53-.07.78,0,.65.16,1.3.36,1.94.56.24.08.32,0,.34-.22.15-1.16.3-2.31.46-3.55Zm-16.78,10.93c0-.08.03-.22.03-.37.04-1.2.07-2.39.11-3.59.03-1.06.07-2.13.11-3.19.01-.25-.08-.34-.34-.33-1,.01-2.01.01-3.01,0-.27,0-.36.08-.35.35,0,1.07,0,2.15-.01,3.22,0,.3.11.37.37.37.77-.01,1.53-.01,2.3,0,.17,0,.35.01.51.07.12.05.24.16.28.28.16.41-.1.74-.6.75-.85.02-1.7.01-2.55,0-.23,0-.31.07-.31.29,0,.54,0,1.08,0,1.63,0,.49,0,.49.48.5.98.01,1.95.02,2.97.03Zm29.35-6.01c-.62,0-1.25,0-1.87,0-.24,0-.33.05-.32.31.05,1.12.08,2.25.12,3.38,0,.22.11.32.32.32,1.24,0,2.48,0,3.72,0,.21,0,.3-.07.3-.31-.02-1.07-.01-2.15-.02-3.23,0-.45,0-.45-.46-.45-.59,0-1.19,0-1.78,0Zm-15.62-35.65s0-.01,0-.02c.23,0,.45,0,.68,0,2.88-.12,5.77-.25,8.65-.36.31-.01.45-.09.46-.4,0-.06,0-.12.02-.18.04-.26-.04-.36-.33-.34-1.03.08-2.06.13-3.09.19-1.31.08-2.61.17-3.92.24-1.02.05-2.04.11-3.07.1-.84,0-1.67-.1-2.51-.16-1.34-.08-2.68-.16-4.01-.23-.82-.05-1.63-.1-2.45-.13-.1,0-.25.03-.29.09-.18.3.12.8.46.81.81.03,1.62.07,2.42.1,2.33.09,4.66.19,6.99.28Zm-24.44,43.81h0c-.59,0-1.19,0-1.78,0-.23,0-.3.09-.29.31.02.45.02.9,0,1.35,0,.28.1.37.38.37,1.13-.01,2.27-.01,3.4,0,.27,0,.34-.11.33-.34-.01-.47-.02-.94-.01-1.41,0-.22-.07-.29-.29-.28-.58.01-1.17,0-1.75,0Zm10.68-1.15c-.33.02-.61.06-.9.06-.74,0-1.47,0-2.21,0-.14,0-.31-.03-.31.19,0,.68,0,1.35.01,2.03,0,.07.12.19.19.19.97.02,1.94.03,2.91.03.07,0,.19-.1.2-.15.04-.78.07-1.57.1-2.36Zm-1.76,3.56s0,.01,0,.02c-.45,0-.9,0-1.35,0-.19,0-.31.05-.31.27,0,.63,0,1.27,0,1.9,0,.19.08.26.26.26.91,0,1.82,0,2.73,0,.15,0,.22-.04.23-.2.01-.66.03-1.33.06-1.99,0-.2-.06-.27-.26-.26-.45.01-.9,0-1.35,0Zm-.09,5.96h0c.42,0,.84-.02,1.26,0,.19,0,.26-.06.26-.24.01-.61.02-1.23.06-1.84.01-.24-.06-.32-.3-.32-.85.01-1.7,0-2.55,0-.22,0-.29.08-.29.28,0,.61,0,1.23-.01,1.84,0,.21.07.29.28.29.43-.01.86,0,1.29,0Zm-.06,1.11s0,0,0,0c-.42,0-.84,0-1.26,0-.15,0-.25.04-.25.22,0,.64,0,1.29,0,1.93,0,.17.05.26.25.26.83,0,1.66,0,2.48-.02.07,0,.21-.13.21-.2.04-.62.05-1.25.08-1.87.01-.25-.09-.33-.32-.32-.4.01-.8,0-1.2,0Zm21.56-55.55c-.07-.01-.17-.04-.27-.05-1.19-.11-2.38-.24-3.58-.33-.88-.07-1.76-.14-2.63-.12-1.03.03-2.06.17-3.09.26-.39.03-.77.06-1.16.1-.37.04-.75.08-1.07.11,3.91.52,7.86.48,11.8.01Zm-5.87-9.32s-.06,0-.09-.01c-.02.14-.04.27-.06.41-.15,1.57-.29,3.13-.43,4.7-.07.74-.14,1.49-.2,2.23-.03.36,0,.38.37.34.15-.01.31-.02.46-.01.7.02.69.02.62-.68-.17-1.64-.32-3.28-.48-4.91-.07-.69-.13-1.38-.19-2.07Zm-14.28,68.38c-.94,0-1.81,0-2.68,0-.17,0-.24.07-.23.24,0,.43,0,.86,0,1.29,0,.18.05.3.26.3.77,0,1.53,0,2.3-.01.09,0,.25-.13.26-.21.05-.52.06-1.03.09-1.6Zm25.69-57.24c.57-.06.57-.06.59-.63,0-.14.09-.32-.14-.38-.23-.05-.9.07-.92.18-.03.24-.07.49-.02.72.02.07.32.07.5.11Zm-22.4-.02c.06-.84,0-.92-.74-.97-.08,0-.17-.03-.24,0-.06.02-.16.09-.16.14,0,.24.04.49.08.73,0,.05.11.11.16.11.3.01.61,0,.9,0Z"/>
      <path class="cls-2" d="m33.51,86.97c3.26,0,6.51,0,9.77,0,2.25,0,4.5-.01,6.76-.02.37,0,.54.13.59.49.04.28-.1.47-.44.56-.12.03-.24.04-.36.04-10.84,0-21.69,0-32.53,0-.13,0-.27,0-.39-.04-.34-.08-.5-.3-.46-.59.04-.3.23-.44.59-.44,3.75,0,7.49,0,11.24,0,1.75,0,3.5,0,5.25,0h0Z"/>
      <path class="cls-2" d="m66.73,86.95c3.4,0,6.8,0,10.19,0,.44,0,.67.18.67.53,0,.34-.25.55-.67.55-6.78,0-13.55,0-20.33,0-.27,0-.55-.01-.67-.32-.17-.44.09-.76.58-.76.9,0,1.8.02,2.7.02,2.51,0,5.02,0,7.52,0,0,0,0-.01,0-.02Z"/>
      <path class="cls-2" d="m53.51,86.96c.44,0,.88,0,1.32,0,.34,0,.51.18.52.48,0,.34-.17.55-.5.58-.19.02-.39,0-.58,0-.64,0-1.29,0-1.93,0-.5,0-.72-.34-.54-.81.09-.22.25-.27.46-.27.42,0,.84,0,1.26,0,0,0,0,0,0,0Z"/>
    </g>
  </g>
</svg>