<?xml version="1.0" encoding="UTF-8"?>
<svg id="Layer_1" data-name="Layer 1" xmlns="http://www.w3.org/2000/svg" viewBox="0 0 94 94">
  <defs>
    <style>
      .cls-1 {
        stroke-width: 0px;
      }
    </style>
  </defs>
  <g id="Yvzlt7">
    <path class="cls-1" d="m74.04,51.96c.56.03,1.05.05,1.63.08v8.96c-.49.03-1,.07-1.65.11v25.95H20.07v-25.94c-.64-.04-1.15-.07-1.74-.11v-8.95c.51-.03,1.03-.07,1.62-.11v-6.49c-.53-.04-1.04-.07-1.63-.11v-8.95h4.35v-5.18h-2.59v-9.04h2.23c0-.96,0-1.81,0-2.66,0-.2,0-.4,0-.6.02-2.01-.22-1.75,1.83-1.78.45,0,.91,0,1.45,0v-3.64h1.92v3.59h3.35v5.01c.78.03,1.43.06,2.17.1v9h-2.51v5.15h4.37v4.25h24.16v-4.2h4.42v-5.17h-2.53v-9.01c.7-.03,1.35-.06,2.14-.1v-4.96h3.35v-3.65h1.92v3.59h3.34v5.01c.8.04,1.45.07,2.19.1v8.98h-2.54v5.13h4.33v8.99c-.51.05-1.04.1-1.64.16v6.48Zm-18.33,33.12c0-.51,0-.9,0-1.29,0-3.37,0-6.74,0-10.11,0-.76-.05-1.52-.15-2.27-.57-4.39-4.98-7.83-9.35-7.33-4.68.54-7.93,4.14-7.95,8.84-.02,3.77,0,7.54,0,11.3,0,.28.04.56.07.85h17.39Zm-19.4,0c0-.52,0-.91,0-1.3,0-3.74-.07-7.47.02-11.21.1-4.1,2-7.24,5.61-9.18,3.57-1.92,7.21-1.79,10.66.35,3.42,2.12,5.01,5.34,5.05,9.33.03,3.64,0,7.27,0,10.91,0,.35,0,.7,0,1.08h3.16v-23.95c-.59-.05-1.1-.09-1.74-.14v-2.46h-24.18v2.47c-.61.04-1.12.08-1.7.12v23.97h3.12Zm-14.28-23.95v23.95h3.52v-23.95h-3.52Zm5.59,0v23.98h3.47v-23.98h-3.47Zm35.28-.07v24h3.49v-23.93c-.29-.03-.51-.07-.74-.07-.89,0-1.77,0-2.76,0Zm9.04,24.01v-23.95h-3.48v23.95h3.48Zm-38.75-35.73v2.58c.58.05,1.1.09,1.75.14v4.33h11v-7.04h-12.75Zm14.82-.01v7.06h11.14v-4.36c.63-.04,1.12-.06,1.65-.09v-2.6h-12.79Zm25.75,4.72h-12.64v4.98h12.64v-4.98Zm-53.54,4.95h12.68v-4.92h-12.68v4.92Zm0-15.64h12.67v-4.99h-12.67v4.99Zm40.86,0h12.65v-4.97h-12.65v4.97Zm-29.96,2.15h-9.09v6.36h9.09v-6.36Zm31.75,6.38h9.08v-6.39h-9.08v6.39Zm-31.76-27.71h-9.07v4.98h9.07v-4.98Zm31.78-.04v5.03h9.05v-5.03h-9.05Zm-24.58,18.54v4.55h7.62v-4.55h-7.62Zm9.69,4.56h7.09v-4.55h-7.09v4.55Zm17.59-15.95v4.95h3.66v-4.95h-3.66Zm-37.15,4.95v-4.92h-3.67v4.92h3.67Zm.43-14.3v-2.79h-4.57v2.79h4.57Zm40.8,0v-2.82h-4.53v2.82h4.53Zm-8.83,23.5c-.62-.05-1.13-.1-1.77-.15v-2.6h-1.91v4.53h3.68v-1.77Zm-24.6-2.83c-.51.03-.89.05-1.39.08v2.6c-.65.06-1.16.11-1.65.15v1.79h3.05v-4.63Z"/>
  </g>
</svg>