<?xml version="1.0" encoding="UTF-8"?>
<svg id="Layer_1" data-name="Layer 1" xmlns="http://www.w3.org/2000/svg" viewBox="0 0 94 94">
  <defs>
    <style>
      .cls-1 {
        stroke-width: 0px;
      }
    </style>
  </defs>
  <g id="zliHqI">
    <g>
      <path class="cls-1" d="m11.84,49.49c.33-.32.65-.65,1.11-1.1,0-.95,0-2.11,0-3.28,0-2.31,0-4.62,0-6.93,0-.21-.01-.41.02-.62.08-.56.54-.96,1.08-.96.54,0,.99.4,1.07.97.03.2.01.41.01.62,0,3.23,0,6.45,0,9.68,0,.25,0,.49,0,.77h11.01c0-.46,0-.93,0-1.39,0-.62-.02-1.24,0-1.85.03-.66.49-1.1,1.08-1.1.59,0,1.06.45,1.08,1.1.03.82,0,1.65,0,2.47,0,.25,0,.49,0,.77h8.77v-9.81h-8.78c0,.68.02,1.38,0,2.08-.02.7-.49,1.17-1.1,1.15-.57-.01-1.04-.44-1.05-1.06-.03-1.12-.03-2.24,0-3.36.02-.66.48-1.03,1.2-1.04,1.03-.01,2.05,0,3.17,0v-.77c0-2.13,0-4.26,0-6.39,0-.18,0-.37,0-.55.05-.65.51-1.09,1.11-1.08.57.01,1.01.44,1.05,1.06.03.48.01.96.01,1.44,0,2.06,0,4.12,0,6.23h4.41c0-.23,0-.47,0-.71.04-1.67-.06-3.35.14-5,.5-4.24,3.89-7.67,8.11-8.37.15-.03.31-.05.55-.09v-.75c0-2.15,0-4.3,0-6.45,0-.18,0-.37,0-.55.05-.65.51-1.09,1.11-1.08.57.01,1.01.44,1.06,1.06.03.46.01.91.01,1.37,0,1.88,0,3.75,0,5.63,0,.25,0,.49,0,.73.69.17,1.32.28,1.92.48,4.04,1.29,6.82,5.05,6.86,9.3.02,1.46,0,2.93,0,4.44h4.42v-.71c0-2.13,0-4.26,0-6.39,0-.16,0-.32,0-.48.04-.7.49-1.16,1.11-1.15.59.01,1.03.46,1.06,1.12.02.39,0,.78,0,1.17,0,2.13,0,4.25,0,6.49.34,0,.65,0,.96,0,.71,0,1.42,0,2.13,0,.9.01,1.3.4,1.31,1.3,0,2.13,0,4.26,0,6.39,0,1.44,0,2.87,0,4.35h11.01v-.75c0-3.2,0-6.41,0-9.61,0-.18,0-.37,0-.55.04-.66.47-1.11,1.06-1.12.62-.01,1.07.45,1.11,1.15.01.18,0,.37,0,.55,0,3.18,0,6.36,0,9.54,0,.25,0,.5,0,.78.91.19,1.11.8,1.11,1.63-.02,5.17-.01,10.34-.01,15.52,0,1.04-.39,1.58-1.12,1.55-.7-.02-1.06-.54-1.06-1.55,0-1.28,0-2.56,0-3.89H14.08v19.7h5.46c0-.26,0-.5,0-.75.04-2.19,0-4.4.15-6.58.14-2.04.84-3.93,2.08-5.58,2.41-3.21,6.26-3.23,8.68-.03,1.26,1.67,1.96,3.58,2.11,5.64.15,2.14.11,4.3.15,6.45,0,.27,0,.54,0,.85h4.41c0-.33,0-.64,0-.95.03-.71.45-1.18,1.06-1.19.64-.01,1.08.47,1.11,1.22,0,.29,0,.59,0,.93h15.4c0-.39,0-.77,0-1.15-.04-1.9.07-3.81-.17-5.68-.46-3.6-3.81-6.32-7.53-6.32-3.72,0-6.98,2.72-7.57,6.31-.07.43-.1.86-.13,1.29-.06.71-.48,1.17-1.09,1.17-.64,0-1.07-.49-1.09-1.24-.08-4.1,2.96-8.1,7.05-9.31,6.33-1.86,12.64,2.8,12.7,9.4.02,1.83,0,3.65,0,5.52h4.41c0-.26,0-.5,0-.75.04-2.19,0-4.4.15-6.58.14-2.04.84-3.93,2.08-5.58,2.41-3.21,6.26-3.23,8.68-.03,1.26,1.67,1.96,3.58,2.11,5.64.15,2.14.11,4.3.15,6.45,0,.27,0,.54,0,.85h5.51c0-.26,0-.51,0-.75,0-3.23,0-6.45,0-9.68,0-.23-.01-.46.02-.68.09-.53.53-.91,1.05-.92.51,0,.97.36,1.08.88.04.2.03.41.03.62,0,3.75-.01,7.51.01,11.26,0,.69-.19,1.2-.83,1.51H11.84c0-11.44,0-22.89,0-34.33Zm41.6,1.39c.05.66.1,1.25.12,1.84.03.87-.36,1.39-1.04,1.42-.68.03-1.11-.48-1.13-1.34,0-.11,0-.23,0-.34-.08-1.45-.36-2.86-.97-4.18-.45-.97-1.01-1.85-1.93-2.44-1.01-.65-2.07-.7-3,.05-.64.52-1.21,1.19-1.63,1.9-.89,1.48-1.22,3.15-1.24,4.86-.03,2.17-.01,4.35-.01,6.52,0,.15.04.3.05.43h8.75c0-.74-.02-1.42,0-2.11.02-.66.47-1.11,1.06-1.13.62-.01,1.08.45,1.11,1.15.02.7,0,1.4,0,2.09h5.51c0-1.79,0-3.53,0-5.26,0-.77.42-1.25,1.06-1.27.66-.02,1.11.48,1.12,1.28,0,1.53,0,3.07,0,4.6,0,.22.02.44.03.66h4.38c0-1.79,0-3.52,0-5.26,0-.8.46-1.3,1.12-1.28.63.02,1.05.5,1.05,1.27,0,1.46,0,2.93,0,4.39,0,.29,0,.58,0,.87h4.41c0-1.78,0-3.52,0-5.25,0-.8.45-1.3,1.11-1.28.64.02,1.05.5,1.06,1.27.01,1.33,0,2.65,0,3.98,0,.43,0,.85,0,1.29h5.46v-8.74h-26.47Zm-39.36,0v8.73h5.46c0-1.79,0-3.53,0-5.26,0-.77.42-1.25,1.06-1.27.66-.02,1.11.48,1.11,1.28,0,1.53,0,3.07,0,4.6,0,.22.02.44.03.65h4.38c0-1.79,0-3.52,0-5.26,0-.77.42-1.25,1.05-1.28.66-.02,1.12.48,1.12,1.27.01,1.46,0,2.93,0,4.39,0,.29,0,.58,0,.87h4.41c0-1.78,0-3.52,0-5.25,0-.8.45-1.3,1.11-1.28.64.02,1.05.5,1.06,1.27.01,1.28,0,2.56,0,3.84,0,.47,0,.95,0,1.43h5.55v-8.74H14.08Zm31.83-7.58c0-1.16,0-2.26,0-3.36,0-.51.23-.87.71-1.07.43-.17.85-.08,1.12.26.19.25.31.61.32.93.04,1.07.01,2.14.01,3.23,2.68.85,3.94,2.95,4.83,5.34h1.74v-15.31h-15.3v15.31h1.74c.9-2.43,2.17-4.49,4.83-5.34Zm-24.22,38.29h8.79c0-2.24.08-4.43-.02-6.62-.09-1.89-.66-3.69-1.89-5.2-1.46-1.78-3.42-1.78-4.89,0-.77.93-1.24,2.02-1.55,3.18-.75,2.84-.26,5.73-.44,8.64Zm50.54.02c0-2.24.08-4.41-.02-6.57-.09-1.89-.64-3.69-1.86-5.21-1.49-1.86-3.48-1.85-4.97,0-.87,1.07-1.37,2.32-1.63,3.66-.53,2.65-.21,5.33-.26,8,0,.04.05.07.09.13h8.66Zm-6.6-32.96v-9.84h-8.71v9.84h8.71Zm-26.16-17.59h15.06c-.15-2.79-2.99-6.65-7.71-6.57-3.71.06-7.38,3.32-7.35,6.57Z"/>
      <path class="cls-1" d="m45.91,77.74c0-.5-.01-1.01,0-1.51.02-.71.45-1.18,1.06-1.19.62-.01,1.09.45,1.1,1.15.02,1.05.02,2.1,0,3.15-.01.7-.48,1.17-1.1,1.16-.61,0-1.05-.48-1.07-1.18-.02-.53,0-1.05,0-1.58Z"/>
      <path class="cls-1" d="m55.27,64.05c.16,0,.32,0,.48,0,.66.04,1.11.48,1.12,1.06.01.59-.43,1.06-1.08,1.1-.36.02-.73.02-1.1,0-.65-.04-1.09-.5-1.09-1.1,0-.59.46-1.02,1.11-1.07.18-.01.37,0,.55,0Z"/>
      <path class="cls-1" d="m59.6,66.21c-.23,0-.46.03-.68,0-.53-.09-.91-.53-.92-1.04-.01-.54.38-1.02.94-1.08.41-.05.82-.04,1.23-.01.65.04,1.1.5,1.09,1.09,0,.59-.46,1.03-1.12,1.07-.18.01-.37,0-.55,0,0,0,0-.01,0-.02Z"/>
    </g>
  </g>
</svg>