<?xml version="1.0" encoding="UTF-8"?>
<svg id="Layer_1" data-name="Layer 1" xmlns="http://www.w3.org/2000/svg" viewBox="0 0 94 94">
  <defs>
    <style>
      .cls-1 {
        fill: #fff;
        font-family: Poppins-Regular, Poppins;
        font-size: 8px;
      }

      .cls-2 {
        stroke-width: 0px;
      }
    </style>
  </defs>
  <text class="cls-1" transform="translate(0 -4.18)"><tspan x="0" y="0">Noida</tspan></text>
  <g>
    <path class="cls-2" d="m75.76,52.5c-.32,0-.58.26-.58.58v1.41c0,.32.26.58.58.58s.58-.26.58-.58v-1.41c0-.32-.26-.58-.58-.58Z"/>
    <path class="cls-2" d="m79.92,52.5c-.32,0-.58.26-.58.58v1.41c0,.32.26.58.58.58s.58-.26.58-.58v-1.41c0-.32-.26-.58-.58-.58Z"/>
    <path class="cls-2" d="m71.6,52.5c-.32,0-.58.26-.58.58v1.41c0,.32.26.58.58.58s.58-.26.58-.58v-1.41c0-.32-.26-.58-.58-.58Z"/>
    <path class="cls-2" d="m23.32,52.5c-.32,0-.58.26-.58.58v1.41c0,.32.26.58.58.58s.58-.26.58-.58v-1.41c0-.32-.26-.58-.58-.58Z"/>
    <path class="cls-2" d="m67.44,52.5c-.32,0-.58.26-.58.58v1.41c0,.32.26.58.58.58s.58-.26.58-.58v-1.41c0-.32-.26-.58-.58-.58Z"/>
    <path class="cls-2" d="m86.25,69.74c.32,0,.58-.26.58-.58v-3.33c0-.32-.26-.58-.58-.58h-4.49v-3.49c0-.32-.26-.58-.58-.58h-3.49v-3.91h4.16c.32,0,.58-.26.58-.58v-5.83c0-.32-.26-.58-.58-.58h-3.34c-.09-1.23-.45-2.39-1.08-3.45,0-.04.01-.08.01-.13v-6.57h2.41c.32,0,.58-.26.58-.58v-4.08c0-.32-.26-.58-.58-.58h-.17c-.26-4.35-3.99-7.74-8.57-7.74-2.8,0-5.38,1.3-6.99,3.49v-.99c0-.32-.26-.58-.57-.58l-4.08-.07c-2.38-5.18-6-7.25-8.67-8.06,0,0,0-.01,0-.02v-1.66c0-.32-.26-.58-.58-.58h-1.51c.28-.13.52-.31.72-.52.59-.6.83-1.46.71-2.54-.02-.15-.09-.29-.22-.39l-2.58-2.08c-.23-.18-.56-.17-.77.04l-2.41,2.33c-.08.08-.14.18-.16.29-.01.05-.29,1.28.46,2.22.22.27.49.49.82.65h-1.71c-.32,0-.58.26-.58.58v1.66c0,.07.01.14.04.21-4.75,1.72-6.97,6.03-7.59,7.46l-5.24-.09c-.15-.02-.3.04-.43.17-.11.11-.18.26-.18.42v.56c-1.61-1.58-3.83-2.48-6.16-2.48-4.51,0-8.25,3.39-8.56,7.74h-.77c-.32,0-.58.26-.58.58v4.08c0,.32.26.58.58.58h2.25v6.57c0,.06,0,.12.03.17-.6,1.06-.94,2.2-1.01,3.4h-2.59c-.32,0-.58.26-.58.58v5.83c0,.32.26.58.58.58h3.58v3.99h-3.41c-.32,0-.58.26-.58.58v3.41h-4.58c-.32,0-.58.26-.58.58v3.33c0,.32.26.58.58.58h4.24v7.99h-4.24c-.32,0-.58.26-.58.58v4.99c0,.32.26.58.58.58h9.16c.32,0,.58-.26.58-.58v-4.99c0-.32-.26-.58-.58-.58h-.33v-8.27c.05-.09.08-.19.08-.3v-1.66h14.06v9.4h-.5c-.32,0-.58.26-.58.58v2.75h-1.91c-.32,0-.58.26-.58.58v2.5c0,.32.26.58.58.58h39.12c.32,0,.58-.26.58-.58v-2.5c0-.32-.26-.58-.58-.58h-2.75v-2.75c0-.32-.26-.58-.58-.58h-.25v-9.4h14.06v10.23h-.25c-.32,0-.58.26-.58.58v4.99c0,.32.26.58.58.58h9.16c.32,0,.58-.26.58-.58v-4.99c0-.32-.26-.58-.58-.58h-3.58v-7.99h3.58Zm-57.94,12.98v-1.33h37.95v1.33H28.31ZM45.36,17.25c-.29-.36-.29-.85-.26-1.09l1.9-1.84,1.98,1.6c.03.6-.1,1.06-.4,1.36-.57.58-1.6.51-1.62.5-.77,0-1.31-.18-1.6-.54Zm18.35,17.61c.27-3.7,3.49-6.57,7.39-6.57s7.14,2.82,7.4,6.57h-14.78Zm-47.7,0c.27-3.7,3.49-6.57,7.39-6.57s7.14,2.82,7.4,6.57h-14.78Zm28.12-14.57v-.5h5.49v.5h-5.49Zm17.87,27.39c-.36.82-.57,1.68-.63,2.58h-28.91c-.05-.89-.25-1.76-.59-2.58h30.13Zm-3.85-18.74l-8.37-.15c.5-.59.69-1.4.58-2.4-.02-.15-.09-.29-.22-.39l-2.58-2.08c-.23-.19-.56-.17-.77.04l-2.41,2.33c-.08.08-.14.18-.16.29-.01.05-.27,1.2.39,2.13l-7.94-.14c.89-1.88,3.92-7.02,10.53-7.02h.13c.28-.02,6.96-.39,10.82,7.4Zm-12.81-1.95l1.9-1.84,1.98,1.6c.03.6-.1,1.06-.4,1.36-.56.58-1.59.51-1.62.5-.77,0-1.31-.18-1.6-.54-.29-.36-.29-.85-.26-1.09Zm-1.21,4.49v-1.62l5.91.1v2.15h-5.82v-.33c0-.11-.03-.21-.08-.3Zm18.85,1.27c-.16.47-.29.95-.36,1.45h-5.14c-2.52-2.29-5.15-3.12-6.28-3.39v-.82l7.61.13c.16.1.36.11.53.03.02,0,.03-.01.05-.02l3.55.06v2.34c0,.07.01.15.04.22Zm-19.35.54h6.99c.32,0,.58-.26.58-.58v-.7c1.9.48,7.4,2.48,9.69,9.85h-7.61v-3.49c0-.32-.26-.58-.58-.58h-10.82c-.32,0-.58.26-.58.58v3.49h-8.14c.27-.97.86-2.7,1.93-4.41,1.98-3.18,4.66-4.88,7.96-5.06v.32c0,.32.26.58.58.58Zm-1.16,8.57v-2.91h9.65v2.91h-9.65Zm-2.75,1.17h1.86c.09.05.19.08.3.08h10.82c.11,0,.21-.03.3-.08h1.36v3.49h-14.65v-3.49Zm29.97-1.92c-.77,0-1.31-.18-1.6-.54-.29-.36-.29-.85-.26-1.09l1.9-1.84,1.98,1.6c.03.6-.1,1.06-.4,1.36-.57.58-1.6.51-1.62.5Zm-11.05-5.74h2.31s0,.05,0,.08v3.38c-.63-1.28-1.41-2.44-2.31-3.46Zm-3.1,7.66h5.86c.13.08.3.1.45.06.05-.01.1-.04.15-.06h.45v2.52l-.52.98h-6.39v-3.49Zm20.72,2.28c-1.62-1.67-3.91-2.62-6.32-2.62s-4.7.95-6.32,2.63v-2.87c0-.32-.26-.58-.58-.58h-.91c-.17-.6-.38-1.18-.6-1.74,0,0,0,0,.01,0h5.15c.07.45.23.85.49,1.17.52.66,1.35.99,2.48.99.26.02,1.61.06,2.5-.85.34-.35.57-.79.67-1.31h3.45v5.2Zm-44.03-2.22s.03,0,.05.01c.14.03.29,0,.41-.07h5.86v3.49h-6.32v-3.43Zm-6.31-3.84c.03.6-.1,1.06-.4,1.36-.57.58-1.6.51-1.62.5-.77,0-1.31-.18-1.6-.54-.29-.36-.29-.85-.26-1.09l1.9-1.83,1.98,1.6Zm.44,2.18c.34-.35.57-.79.67-1.31h5.45s.03,0,.04,0c-.27.72-.45,1.33-.56,1.75h-.31c-.32,0-.58.26-.58.58v3.74c-1.58-2.27-4.28-3.66-7.16-3.66-2.46,0-4.78,1.01-6.41,2.77v-5.18h3.39c.07.45.23.85.49,1.17.52.66,1.35.99,2.47.99h0c.16.02,1.59.09,2.5-.85Zm9.22-6.55c-.98,1.1-1.83,2.43-2.53,3.96l-.07-3.39c0-.3-.23-.54-.52-.57h3.12Zm34.36,8.99c3.87,0,7.09,2.8,7.39,6.41h-14.78c.28-3.6,3.49-6.41,7.39-6.41Zm-.66-7.42l-2.41,2.33c-.05.05-.09.11-.12.17h-4.63v-2.91h.75s.08,0,.12-.01c.04,0,.08.01.12.01h16.15v2.91h-6.4s0-.04,0-.06c-.02-.15-.09-.29-.22-.39l-2.58-2.08c-.23-.19-.56-.17-.77.04Zm-26.32-5.22c-2.36.13-4.47.98-6.25,2.53-.07-.03-.15-.05-.24-.05h-4.66c-.2-.97-.58-1.88-1.12-2.71.02-.06.04-.13.04-.2v-1.15l12.23.21v1.37Zm-15.89,7.72s0-.04,0-.06c-.02-.15-.09-.29-.22-.39l-2.58-2.08c-.23-.18-.56-.17-.77.04l-2.41,2.33c-.05.05-.09.11-.12.17h-6.3v-2.91h17.16l.06,2.91h-4.81Zm-3.17,4.75c3.99,0,7.14,2.81,7.4,6.57h-14.78c.27-3.7,3.49-6.57,7.39-6.57Zm52.61,17.48h-.83c-.32,0-.58.26-.58.58s.26.58.58.58h4.91v2.91h-2.66c-.32,0-.58.26-.58.58v.5h-14.06v-8.99h13.23v3.83Zm4.99,8.58v7.99h-2.99v-7.99h2.99Zm-2.99-1.17v-2.16h7.16v2.16h-7.16Zm-21.48,7.08h1v1.24h-6.84l-.4-11.92c-.01-.32-.27-.57-.58-.57h-6.33c-.32,0-.58.26-.58.58v11.9h-7.07v-1.66h.91c.32,0,.58-.26.58-.58v-17.4h18.73v17.81c0,.32.26.58.58.58Zm-20.48-15.07v13.48h-.91c-.32,0-.58.26-.58.58v2.25h-.5v-16.31h1.99Zm0-3.33v2.16h-2.58c-.32,0-.58.26-.58.58v16.9h-1.49v-19.64h4.66Zm7.91,8.32h5.18l.38,11.32h-5.55v-11.32Zm14.15,8.9h-1v-13.9h1.83v16.31h-.25v-1.83c0-.32-.26-.58-.58-.58Zm1.41-15.07h-2.41v-2.16h4.49v19.64h-1.49v-16.9c0-.32-.26-.58-.58-.58Zm-41.04,2.42c0-.32-.26-.58-.58-.58h-.91v-3.91h13.23v8.99h-14.06v-.5c0-.32-.26-.58-.58-.58h-2.58v-2.83h4.91c.32,0,.58-.26.58-.58Zm-5.66-5.75v-4.66h67.92v4.66H13.33Zm2.08,13.66v7.99h-2.24v-7.99h2.24Zm-7.07-1.17v-2.16h4.28c.18.1.42.1.6,0h2.28v2.16h-7.16Zm7.99,10.33v3.82h-7.99v-3.82h7.99Zm14.49,1.33v-2.16h32.13v2.16H30.81Zm54.85-1.33v3.82h-7.99v-3.82h7.99Z"/>
    <path class="cls-2" d="m19.16,52.5c-.32,0-.58.26-.58.58v1.41c0,.32.26.58.58.58s.58-.26.58-.58v-1.41c0-.32-.26-.58-.58-.58Z"/>
    <path class="cls-2" d="m14.99,52.5c-.32,0-.58.26-.58.58v1.41c0,.32.26.58.58.58s.58-.26.58-.58v-1.41c0-.32-.26-.58-.58-.58Z"/>
    <path class="cls-2" d="m34.97,52.5c-.32,0-.58.26-.58.58v1.41c0,.32.26.58.58.58s.58-.26.58-.58v-1.41c0-.32-.26-.58-.58-.58Z"/>
    <path class="cls-2" d="m51.62,52.5c-.32,0-.58.26-.58.58v1.41c0,.32.26.58.58.58s.58-.26.58-.58v-1.41c0-.32-.26-.58-.58-.58Z"/>
    <path class="cls-2" d="m47.46,52.5c-.32,0-.58.26-.58.58v1.41c0,.32.26.58.58.58s.58-.26.58-.58v-1.41c0-.32-.26-.58-.58-.58Z"/>
    <path class="cls-2" d="m39.13,52.5c-.32,0-.58.26-.58.58v1.41c0,.32.26.58.58.58s.58-.26.58-.58v-1.41c0-.32-.26-.58-.58-.58Z"/>
    <path class="cls-2" d="m43.3,52.5c-.32,0-.58.26-.58.58v1.41c0,.32.26.58.58.58s.58-.26.58-.58v-1.41c0-.32-.26-.58-.58-.58Z"/>
    <path class="cls-2" d="m41.63,43.35c-.32,0-.58.26-.58.58v1.42c0,.32.26.58.58.58s.58-.26.58-.58v-1.42c0-.32-.26-.58-.58-.58Z"/>
    <path class="cls-2" d="m27.48,52.5c-.32,0-.58.26-.58.58v1.41c0,.32.26.58.58.58s.58-.26.58-.58v-1.41c0-.32-.26-.58-.58-.58Z"/>
    <path class="cls-2" d="m31.64,52.5c-.32,0-.58.26-.58.58v1.41c0,.32.26.58.58.58s.58-.26.58-.58v-1.41c0-.32-.26-.58-.58-.58Z"/>
    <path class="cls-2" d="m46.63,43.35c-.32,0-.58.26-.58.58v1.42c0,.32.26.58.58.58s.58-.26.58-.58v-1.42c0-.32-.26-.58-.58-.58Z"/>
    <path class="cls-2" d="m51.62,43.35c-.32,0-.58.26-.58.58v1.42c0,.32.26.58.58.58s.58-.26.58-.58v-1.42c0-.32-.26-.58-.58-.58Z"/>
    <path class="cls-2" d="m63.27,52.5c-.32,0-.58.26-.58.58v1.41c0,.32.26.58.58.58s.58-.26.58-.58v-1.41c0-.32-.26-.58-.58-.58Z"/>
    <path class="cls-2" d="m59.11,52.5c-.32,0-.58.26-.58.58v1.41c0,.32.26.58.58.58s.58-.26.58-.58v-1.41c0-.32-.26-.58-.58-.58Z"/>
    <path class="cls-2" d="m54.95,52.5c-.32,0-.58.26-.58.58v1.41c0,.32.26.58.58.58s.58-.26.58-.58v-1.41c0-.32-.26-.58-.58-.58Z"/>
  </g>
</svg>