<?xml version="1.0" encoding="UTF-8"?>
<svg id="Layer_1" data-name="Layer 1" xmlns="http://www.w3.org/2000/svg" viewBox="0 0 94 94">
  <defs>
    <style>
      .cls-1 {
        stroke-width: 0px;
      }
    </style>
  </defs>
  <g id="HnrC52">
    <g>
      <path class="cls-1" d="m9.24,43.51h4.1v-5.34h17.36v-9.7h-2.15v-6.81c.64-.22,33.89-.3,35.3-.07v6.8c-.45.03-.9.06-1.43.1v9.64h18.83v5.33c.69.04,1.26.08,1.89.12v38.35c-24.65.25-49.24.03-73.9.06v-38.47Zm1.91,36.49h24.69v-28.03c-1.27-.23-24.04-.16-24.69.08v27.96Zm70.04.01v-28.1h-24.67v28.1h24.67Zm-29.69,0c.02-.33.05-.57.05-.81,0-2.48,0-4.97,0-7.45,0-3.91.02-7.82,0-11.73-.02-2.98-2.11-5.28-4.89-5.49-3.11-.23-5.7,2.12-5.71,5.28-.03,6.49-.01,12.97,0,19.46,0,.24.05.47.08.74h10.48Zm-13.64-32.16v32.16h1.18c0-.39,0-.72,0-1.06,0-2.33,0-4.66,0-6.98,0-4.19-.05-8.38.05-12.57.08-3.31,2.47-5.96,5.76-6.64,3.14-.66,6.4.95,7.84,3.87.56,1.14.76,2.35.76,3.61,0,6.21,0,12.41,0,18.62v1.14h1.05v-32.15h-16.63Zm24.09-21.39v-3.09c-10.58,0-21.07,0-31.54,0v3.09h31.54Zm-1.63,13.66v-3.26c-1.62-.22-26.9-.13-27.6.1,0,.85,0,1.71,0,2.58,0,.18.04.36.07.58h27.53Zm-20.66-5.35h13.33v-6.27h-13.33v6.27Zm-1.85,8.77v2.35h16.78v-2.43h5.83v-1.32h-27.73v1.4h5.11Zm24.63-.12h16.84v-3.36h-16.84v3.36Zm-31.74-3.33h-15.38v3.32h15.38v-3.32Zm24.29-11.61v6.29h5.35v-6.29h-5.35Zm-22.22.01v6.32c1.67.04,3.25.05,4.86,0v-6.32h-4.86Zm-16.82,16.94v4.41h3.87v-4.41h-3.87Zm61.05,4.42v-4.38h-3.91v4.38h3.91Zm-11.76-4.39h-3.87v4.37h3.87v-4.37Zm-43.41,4.38h3.84v-4.38h-3.84v4.38Zm9.76-4.39h-3.84v4.37h3.84v-4.37Zm35.68-.01v4.46c1.33,0,2.58.06,3.82-.03v-4.43h-3.82Zm-10.75-.01v4.41h2.81v-4.41h-2.81Zm-42.54,4.43c-.01-1.56.03-2.99-.02-4.4h-2.87c.02,1.52-.03,2.95.03,4.4h2.86Zm19.6-4.43v4.4h2.24v-4.4h-2.24Zm45.43,0v4.41h2.18v-4.41h-2.18Z"/>
      <path class="cls-1" d="m16.45,54.28h1.73v8.39h-1.73v-8.39Z"/>
      <path class="cls-1" d="m24.34,62.68h-1.75v-8.4h1.75v8.4Z"/>
      <path class="cls-1" d="m29.49,62.66v-8.38h1.79v8.38h-1.79Z"/>
      <path class="cls-1" d="m61.8,54.28h1.79v8.37h-1.79v-8.37Z"/>
      <path class="cls-1" d="m68.04,54.29h1.76v8.38h-1.76v-8.38Z"/>
      <path class="cls-1" d="m76.68,54.3v8.36h-1.76v-8.36h1.76Z"/>
    </g>
  </g>
</svg>